<svg xmlns="http://www.w3.org/2000/svg" width="207" height="191" viewBox="0 0 207 191">
    <g fill="none" fill-rule="nonzero">
        <g fill="#565656" opacity=".3">
            <path d="M93.312 41.637H91.1v-2.202a.666.666 0 1 0-1.335 0v2.202h-2.211a.666.666 0 0 0-.668.665c0 .367.3.665.668.665h2.211v2.201c0 .367.3.665.668.665a.666.666 0 0 0 .667-.665v-2.201h2.212a.666.666 0 0 0 0-1.33zM200.426 81.142h-1.338V79.81a.666.666 0 1 0-1.335 0v1.332h-1.338a.666.666 0 0 0-.668.665c0 .367.3.665.668.665h1.338v1.332c0 .367.3.665.668.665a.666.666 0 0 0 .667-.665v-1.332h1.338a.666.666 0 0 0 0-1.33zM18.174 48.36h-1.338v-1.332a.666.666 0 1 0-1.335 0v1.331h-1.338a.666.666 0 0 0-.668.665c0 .367.3.665.668.665h1.338v1.332c0 .367.3.665.668.665a.666.666 0 0 0 .667-.665V49.69h1.338a.666.666 0 0 0 .668-.665c0-.367-.299-.665-.668-.665zM44.168 115.549h-2.211v-2.202c0-.367-.3-.665-.668-.665a.666.666 0 0 0-.667.665v2.202H38.41a.666.666 0 0 0-.667.665c0 .367.299.664.667.664h2.212v2.202a.666.666 0 1 0 1.335 0v-2.202h2.211a.666.666 0 0 0 .668-.664c0-.367-.3-.665-.668-.665zM154.61 171.995h-2.212v-2.202c0-.367-.3-.665-.668-.665a.666.666 0 0 0-.667.665v2.202h-2.212a.666.666 0 0 0-.667.665c0 .367.299.664.667.664h2.212v2.202a.666.666 0 1 0 1.335 0v-2.202h2.211a.666.666 0 0 0 .668-.664c0-.367-.3-.665-.668-.665zM184.026 152.033h-5.708v-5.682a.666.666 0 1 0-1.335 0v5.682h-5.707a.666.666 0 0 0-.668.665c0 .367.3.665.668.665h5.707v5.681c0 .367.3.665.668.665a.666.666 0 0 0 .667-.665v-5.681h5.708a.666.666 0 0 0 .667-.665c0-.367-.299-.665-.667-.665zM106.73 139.502h-5.154v-5.133c0-.367-.299-.664-.668-.664a.666.666 0 0 0-.667.664v5.133h-5.155a.666.666 0 0 0-.667.665c0 .366.299.664.667.664h5.155v5.133a.666.666 0 1 0 1.335 0v-5.133h5.155a.666.666 0 0 0 0-1.33zM37.234 37.219h-5.155v-5.133a.666.666 0 1 0-1.335 0v5.133H25.59a.666.666 0 0 0-.668.664c0 .367.3.665.668.665h5.154v5.134c0 .367.3.665.668.665a.666.666 0 0 0 .667-.665v-5.134h5.155a.666.666 0 0 0 0-1.33zM187.427 90.746h-2.212v-2.202a.666.666 0 1 0-1.335 0v2.202h-2.211a.666.666 0 0 0-.668.665c0 .367.3.665.668.665h2.211v2.202c0 .367.3.664.668.664a.666.666 0 0 0 .667-.664v-2.202h2.212a.666.666 0 0 0 .667-.665c0-.367-.299-.665-.667-.665z"/>
        </g>
        <g opacity=".262">
            <path fill="#F2CC38" d="M81.616 116.145l-6.931 5.159c-2.957 2.2-7.167 1.569-9.357-1.405l-13.94-18.938c-2.189-2.973-1.56-7.207 1.397-9.41l6.93-5.158c2.957-2.201 7.168-1.569 9.357 1.404l13.942 18.939c2.187 2.974 1.558 7.208-1.398 9.409z"/>
            <path fill="#565656" d="M70.73 123.29c-.368 0-.738-.027-1.11-.083a7.296 7.296 0 0 1-4.828-2.907L50.85 101.363c-2.412-3.28-1.723-7.924 1.536-10.35l6.931-5.16c3.262-2.425 7.879-1.731 10.293 1.546l13.94 18.937c2.414 3.28 1.725 7.924-1.536 10.351l-6.93 5.158a7.257 7.257 0 0 1-4.354 1.446zm-7.044-37.54a5.957 5.957 0 0 0-3.573 1.185l-6.931 5.159c-2.668 1.986-3.23 5.785-1.256 8.467L65.867 119.5a5.972 5.972 0 0 0 3.95 2.38 5.98 5.98 0 0 0 4.469-1.115l6.931-5.159a6.023 6.023 0 0 0 2.367-3.972 6.032 6.032 0 0 0-1.11-4.495l-13.94-18.937a6.004 6.004 0 0 0-4.848-2.451z"/>
            <path fill="#FFF" d="M70.713 121.277c-1.64 0-3.26-.753-4.308-2.177l-13.941-18.938c-1.756-2.384-1.254-5.76 1.118-7.527l6.931-5.16c2.37-1.766 5.73-1.26 7.485 1.124.221.3.158.72-.139.94a.664.664 0 0 1-.935-.14 4.001 4.001 0 0 0-5.613-.843l-6.932 5.16a4.053 4.053 0 0 0-.838 5.643l13.94 18.938a4.003 4.003 0 0 0 5.613.844.668.668 0 0 1 .935.14c.22.3.158.72-.14.94a5.294 5.294 0 0 1-3.176 1.056z"/>
            <path fill="#ECECEC" d="M100.741 105.71l15.368-10.811 7.446 10.774-19.068 13.413"/>
            <path fill="#565656" d="M104.486 119.758a.674.674 0 0 1-.383-1.224l18.52-13.029-6.68-9.668-14.82 10.423c-.299.21-.716.14-.93-.167a.674.674 0 0 1 .166-.936l15.367-10.81a.662.662 0 0 1 .931.168l7.445 10.773a.674.674 0 0 1-.166.935l-19.068 13.414a.656.656 0 0 1-.382.121z"/>
            <path fill="#ECECEC" d="M148.343 99.243l-26.28-8.622 1.195 13.093 22.317 6.922z"/>
            <path fill="#565656" d="M145.575 111.309a.69.69 0 0 1-.197-.03l-22.318-6.921a.674.674 0 0 1-.47-.582l-1.194-13.093a.672.672 0 0 1 .875-.702l26.28 8.621a.672.672 0 0 1 .44.8l-2.766 11.393a.663.663 0 0 1-.318.425.663.663 0 0 1-.332.089zm-21.692-8.103l21.21 6.578 2.451-10.093-24.722-8.112 1.06 11.627z"/>
            <path fill="#FFF" d="M144.13 108.749a.69.69 0 0 1-.196-.03l-18.997-5.891a.674.674 0 0 1-.47-.581l-.794-8.693a.673.673 0 0 1 .604-.732c.35-.014.693.238.728.608l.752 8.245 17.892 5.548 1.652-6.802a.668.668 0 1 1 1.298.32l-1.821 7.494a.664.664 0 0 1-.319.423c-.1.06-.214.09-.329.09z"/>
            <path fill="#B1B1B1" d="M118.816 92.753l6.367 10.04a2.207 2.207 0 0 1-.666 3.028 2.18 2.18 0 0 1-3.012-.67l-6.366-10.04c-.645-1.017 2.232.962 3.244.314 1.011-.648-.212-3.689.433-2.672z"/>
            <path fill="#565656" d="M123.355 106.837c-.207 0-.417-.023-.626-.07a2.825 2.825 0 0 1-1.787-1.255l-6.368-10.04c-.32-.506-.195-.852-.033-1.05.378-.471.921-.266 1.673.018.383.144 1.547.584 1.81.417.056-.035.221-.263-.01-1.693-.078-.483-.166-1.034.385-1.245.56-.203.873.304.982.474l6.366 10.04a2.878 2.878 0 0 1-.87 3.956 2.812 2.812 0 0 1-1.522.448zm-6.881-10.874l5.597 8.828a1.513 1.513 0 0 0 2.088.464c.702-.45.91-1.393.46-2.1l-5.209-8.213c-.087.425-.285.806-.667 1.05-.626.402-1.473.235-2.27-.029z"/>
            <g transform="translate(113.215 89.492)">
                <ellipse cx="7.44" cy="7.298" fill="#F2CC38" rx="6.294" ry="6.33"/>
                <path fill="#565656" d="M7.44 14.301a6.883 6.883 0 0 1-1.558-.178 6.915 6.915 0 0 1-4.342-3.108 6.993 6.993 0 0 1-.887-5.286 6.955 6.955 0 0 1 3.09-4.366A6.88 6.88 0 0 1 9 .473c3.742.863 6.087 4.625 5.229 8.39A6.986 6.986 0 0 1 7.44 14.3zM7.429 1.638c-1.044 0-2.07.295-2.977.867a5.616 5.616 0 0 0-2.495 3.527 5.65 5.65 0 0 0 .716 4.27 5.59 5.59 0 0 0 3.509 2.51c3.011.693 6.048-1.208 6.741-4.248.693-3.04-1.201-6.082-4.223-6.779h-.002a5.608 5.608 0 0 0-1.27-.147z"/>
            </g>
            <path fill="#FFF" d="M120.656 101.775a4.928 4.928 0 0 1-4.202-2.34 4.971 4.971 0 0 1-.632-3.763 4.986 4.986 0 0 1 1.881-2.888.669.669 0 0 1 .935.141c.22.3.157.72-.14.94a3.629 3.629 0 0 0-1.371 2.109 3.62 3.62 0 0 0 .461 2.745 3.59 3.59 0 0 0 2.257 1.616c1.042.241 2.116.01 2.966-.624a.674.674 0 0 1 .936.14c.22.3.157.72-.139.942-.864.644-1.9.982-2.952.982z"/>
            <path fill="#D8D8D8" d="M157.511 90.942c-1.01 3.543-5.466 7.582-8.867 9.273l.001.002-3.529-1.017a3.623 3.623 0 0 0 2.337 4.434l.003.004 2.586-2.264 7.972 9.465 4.056-15.818a3.388 3.388 0 0 0 1.95-2.202 3.407 3.407 0 0 0-2.32-4.21 3.384 3.384 0 0 0-4.189 2.333z"/>
            <path fill="#575756" d="M158.013 111.51a.667.667 0 0 1-.511-.238l-7.532-8.943-2.076 1.816a.661.661 0 0 1-.71.108 4.28 4.28 0 0 1-2.71-5.238.66.66 0 0 1 .827-.461l3.276.943c3.333-1.74 7.394-5.595 8.29-8.74a4.049 4.049 0 0 1 1.932-2.442 4.006 4.006 0 0 1 3.083-.354c1.04.3 1.903.99 2.428 1.942.524.952.65 2.052.352 3.1a4.043 4.043 0 0 1-2.023 2.492l-3.98 15.51a.67.67 0 0 1-.646.505zm-7.97-10.809l.05.001c.178.015.344.1.46.237l7.135 8.473 3.735-14.559a.674.674 0 0 1 .39-.452 2.716 2.716 0 0 0 1.564-1.766c.2-.701.117-1.44-.235-2.077a2.702 2.702 0 0 0-1.628-1.302 2.693 2.693 0 0 0-2.066.236 2.725 2.725 0 0 0-1.295 1.637c-1.047 3.677-5.598 7.893-9.213 9.692a.667.667 0 0 1-.48.043l-2.813-.81a2.931 2.931 0 0 0 1.677 2.806l2.278-1.992a.663.663 0 0 1 .44-.167z"/>
            <path fill="#BCB5B5" d="M147.094 109.366l-.018.003-.008.01a1.247 1.247 0 0 0-.68.789c-.19.666.192 1.361.855 1.552l8.771 2.528a1.248 1.248 0 0 0 1.544-.861c.07-.248.061-.5-.012-.73l.467-1.818-7.972-9.465-2.586 2.264"/>
            <path fill="#575756" d="M156.36 114.97c-.177 0-.355-.025-.53-.076l-8.771-2.528a1.93 1.93 0 0 1-1.314-2.385c.147-.518.508-.949.994-1.192a.664.664 0 0 1 .337-.094c.377-.047.668.219.715.586.038.315-.17.608-.46.716a.574.574 0 0 0-.302.356.584.584 0 0 0 .399.721l8.77 2.528a.596.596 0 0 0 .442-.05.575.575 0 0 0 .276-.35.592.592 0 0 0-.006-.337.684.684 0 0 1-.012-.374l.38-1.482-7.308-8.679-2.076 1.816a.664.664 0 0 1-.944-.066.674.674 0 0 1 .066-.948l2.587-2.264a.683.683 0 0 1 .49-.164c.178.015.344.1.46.237l7.97 9.464c.14.166.192.391.139.602l-.423 1.652c.06.303.048.615-.036.915-.14.495-.466.905-.914 1.154-.29.159-.607.242-.928.242z"/>
            <path fill="#FFF" d="M153.562 112.752a.431.431 0 0 1-.115-.016l-6.002-1.729a.518.518 0 0 1-.351-.633c.028-.1.125-.23.21-.287a.415.415 0 0 1 .606.184l5.767 1.66a.42.42 0 0 1-.115.821z"/>
            <path fill="#F2CC38" d="M157.949 104.658c.208 1.509-.154 2.49-.344 3.23-.332 1.291-.986 1.61-.986 1.61l-1.274 1.123s-.982.506-.6 1.637a3.547 3.547 0 0 0 2.485 2.679c.225.064.451.105.677.124l.02-.073 1.894-6.644 2.205-7.737-2.001-1.13c-.002.001-2.344 1.738-2.076 5.18z"/>
            <path fill="#565656" d="M157.852 115.73a4.14 4.14 0 0 1-.806-.146 4.219 4.219 0 0 1-2.957-3.184c-.407-1.19.346-2.021.866-2.33l1.37-1.175c-.005 0 .393-.253.63-1.173l.083-.308c.181-.66.409-1.485.247-2.662l-.004-.04c-.294-3.77 2.237-5.691 2.344-5.772l.348-.257 2.84 1.602-4.396 15.421-.565.024zm-.843-5.682l-1.361 1.173c-.133.074-.443.314-.27.82.243 1.123 1.015 1.955 2.034 2.25l.015.004 3.809-13.361-1.126-.635c-.561.566-1.668 1.99-1.497 4.287.196 1.442-.083 2.449-.285 3.186l-.077.285c-.335 1.305-.971 1.824-1.242 1.991z"/>
            <path fill="#FFF" d="M157.108 114.066a.426.426 0 0 1-.19-.045 2.808 2.808 0 0 1-1.454-1.916c-.073-.231-.085-.363-.059-.472a.954.954 0 0 1 .152-.257.412.412 0 0 1 .121-.094l.129-.066 1.225-1.097a.416.416 0 1 1 .549.627l-1.31 1.153c.144.634.512 1.11 1.027 1.376.204.107.284.36.18.564a.414.414 0 0 1-.37.227zm1.987-9.114a.417.417 0 0 1-.415-.387 5.72 5.72 0 0 1 .194-1.986 5.337 5.337 0 0 1 1.022-1.933c.149-.178.41-.2.586-.053a.42.42 0 0 1 .053.59 4.513 4.513 0 0 0-.86 1.626 4.908 4.908 0 0 0-.165 1.695.415.415 0 0 1-.384.447l-.03.001z"/>
            <path fill="#F2CC38" d="M161.042 101.958a.576.576 0 0 0 .713-.397l3.473-12.186a.58.58 0 0 0-.395-.717l-1.87-.54a.576.576 0 0 0-.713.398l-3.052 10.705c-.088.308-.102.686.29 1.083l1.554 1.654z"/>
            <path fill="#565656" d="M161.2 102.653c-.114 0-.23-.016-.343-.048l-.177-.05-1.677-1.79c-.327-.326-.683-.906-.448-1.727l3.051-10.707a1.24 1.24 0 0 1 1.539-.858l1.87.538c.66.19 1.042.884.853 1.549l-3.474 12.185a1.238 1.238 0 0 1-1.193.908zm1.58-13.889l-2.938 10.643c-.04.144-.054.245.121.42l1.219 1.298 3.403-11.937-1.806-.424z"/>
            <path fill="#575756" d="M151.167 103.184a.674.674 0 0 1-.45-1.169l4.691-4.313-.856-2.027a.668.668 0 1 1 1.23-.525l1.041 2.465a.673.673 0 0 1-.164.759l-5.042 4.634a.655.655 0 0 1-.45.176z"/>
            <path fill="#FFF" d="M156.616 107.906a.411.411 0 0 1-.326-.158l-3.744-4.77a.421.421 0 0 1 .04-.562l3.519-3.394a.414.414 0 0 1 .587.014.42.42 0 0 1-.013.59l-3.247 3.132 3.51 4.472a.42.42 0 0 1-.07.588.407.407 0 0 1-.256.088zM147.266 102.85a.415.415 0 0 1-.186-.044c-.059-.028-1.417-.737-1.516-2.408a.42.42 0 0 1 .391-.442c.223.021.426.163.44.393.07 1.18 1.021 1.692 1.061 1.712a.421.421 0 0 1 .18.562.413.413 0 0 1-.37.228zM160.21 99.95a.42.42 0 0 1-.4-.534l2.913-10.212a.421.421 0 0 1 .515-.286.42.42 0 0 1 .285.518l-2.912 10.212a.417.417 0 0 1-.4.302z"/>
            <path fill="#F2CC38" d="M149.622 99.883l-2.569 11.25a2.82 2.82 0 0 1-3.37 2.124c-1.507-.349-2.457-1.873-2.11-3.39l2.568-11.25a2.82 2.82 0 0 1 3.37-2.123c1.508.349 2.458 1.873 2.111 3.39z"/>
            <path fill="#565656" d="M144.315 114.002c-.257 0-.52-.028-.78-.089-1.869-.432-3.042-2.314-2.614-4.195l2.569-11.25a3.472 3.472 0 0 1 1.546-2.18c.79-.497 1.72-.659 2.625-.447a3.447 3.447 0 0 1 2.167 1.553c.495.794.654 1.732.447 2.641l-2.569 11.25a3.49 3.49 0 0 1-3.391 2.717zm2.567-16.906c-.397 0-.79.113-1.137.332a2.147 2.147 0 0 0-.952 1.341l-2.57 11.25a2.16 2.16 0 0 0 1.612 2.582 2.155 2.155 0 0 0 2.567-1.62l2.569-11.249a2.143 2.143 0 0 0-.276-1.623 2.13 2.13 0 0 0-1.813-1.013z"/>
            <path fill="#FFF" d="M144.312 111.983c-.11 0-.222-.014-.332-.04a1.457 1.457 0 0 1-.912-.655 1.484 1.484 0 0 1-.191-1.116l2.567-11.25c.078-.346.272-.644.56-.858.299-.219.716-.157.934.14.221.299.158.72-.139.94l-2.62 11.33c.003 0 .104.16.105.162.083-.363.513-.64.88-.558.362.082.667.391.585.754a1.478 1.478 0 0 1-1.437 1.15z"/>
            <g transform="translate(75.756 90.838)">
                <ellipse cx="18.158" cy="18.041" fill="#ECECEC" rx="16.842" ry="16.936"/>
                <path fill="#565656" d="M18.18 35.644a17.468 17.468 0 0 1-14.097-7.126A17.573 17.573 0 0 1 .839 15.441a17.52 17.52 0 0 1 6.9-11.555A17.35 17.35 0 0 1 20.743.624c4.626.696 8.706 3.16 11.49 6.939 5.745 7.805 4.103 18.854-3.655 24.632a17.368 17.368 0 0 1-10.397 3.45zm-.057-33.868c-3.438 0-6.772 1.099-9.586 3.195C1.369 10.306-.147 20.51 5.16 27.718c5.304 7.208 15.454 8.732 22.621 3.395 7.167-5.335 8.682-15.54 3.375-22.747-2.57-3.492-6.338-5.768-10.611-6.41-.808-.12-1.619-.18-2.422-.18z"/>
            </g>
            <path fill="#ECECEC" d="M108.286 57.93l-.687 1.162a1.807 1.807 0 0 0 .62 2.463c.259.156.544.229.829.242.09 1.783 1.031 3.492 2.66 4.47 2.592 1.554 5.976.693 7.522-1.912l2.112-3.564c1.545-2.606.689-6.01-1.902-7.563-2.592-1.554-5.976-.693-7.521 1.913l-1.263 2.13a1.779 1.779 0 0 0-2.37.66z"/>
            <path fill="#565656" d="M114.496 67.715a6.082 6.082 0 0 1-3.13-.87 6.171 6.171 0 0 1-2.935-4.47 2.442 2.442 0 0 1-1.676-1.757 2.47 2.47 0 0 1 .268-1.87l.69-1.162a2.446 2.446 0 0 1 2.651-1.138l.98-1.653c1.738-2.931 5.524-3.896 8.44-2.147 2.915 1.749 3.871 5.555 2.133 8.486l-2.112 3.562a6.116 6.116 0 0 1-3.78 2.825c-.506.13-1.02.194-1.529.194zm-4.68-9.983c-.38 0-.748.195-.954.542l-.69 1.16a1.13 1.13 0 0 0 .387 1.543c.149.088.324.14.518.148l.607.028.031.61a4.847 4.847 0 0 0 2.336 3.925c1.1.659 2.397.85 3.647.53a4.776 4.776 0 0 0 2.958-2.21l2.112-3.561c1.36-2.294.612-5.274-1.668-6.642a4.808 4.808 0 0 0-6.606 1.679l-1.59 2.68-.561-.302c-.17-.089-.35-.13-.528-.13z"/>
            <path fill="#FFF" d="M114.498 65.696c-.736 0-1.46-.198-2.105-.585-.167-.101-.323-.21-.472-.329a.67.67 0 1 1 .836-1.05 2.787 2.787 0 0 0 2.447.53 2.78 2.78 0 0 0 1.727-1.285l2.114-3.564a2.851 2.851 0 0 0-.655-3.652 2.558 2.558 0 0 0-.316-.22.676.676 0 0 1-.237-.922.67.67 0 0 1 .916-.238c.169.1.328.21.477.332 1.602 1.294 2.018 3.612.966 5.388l-2.114 3.563a4.118 4.118 0 0 1-2.549 1.901c-.345.088-.69.13-1.035.13z"/>
            <path fill="#ECECEC" d="M81.48 73.794c-3.317.193-5.875 3.078-5.685 6.415.191 3.336 3.062 5.908 6.38 5.717l18.847-1.091c2.186.296 4.463-.597 5.794-2.54l9.507-13.863-10.04-6.765L98.65 72.8l-17.168.993z"/>
            <path fill="#565656" d="M81.824 86.61c-3.526 0-6.49-2.777-6.695-6.362-.213-3.716 2.62-6.912 6.314-7.125l16.842-.975 7.823-11.41 11.152 7.515-9.893 14.424c-1.428 2.088-3.909 3.164-6.433 2.825l-18.72 1.095a6.27 6.27 0 0 1-.39.012zm-.306-12.144c-2.956.17-5.224 2.73-5.054 5.705a5.39 5.39 0 0 0 5.674 5.082l18.847-1.09c2.159.272 4.139-.586 5.28-2.251l9.122-13.304-8.928-6.016-7.446 10.86-17.495 1.014z"/>
            <path fill="#FFF" d="M81.829 84.591a4.667 4.667 0 0 1-2.938-1.045 4.745 4.745 0 0 1-1.758-3.414l1.335-.077a3.401 3.401 0 0 0 1.261 2.442c.65.526 1.455.796 2.292.744l19.041-1.102.315.028c1.296.182 2.527-.362 3.236-1.399l7.97-11.619-6.143-4.14.745-1.116 7.269 4.9-8.739 12.74c-.997 1.455-2.72 2.21-4.512 1.969l-.189-.024-18.917 1.105c-.088.006-.179.008-.268.008z"/>
            <path fill="#F2CC38" d="M107.592 60.028l9.175 6.436a2.003 2.003 0 0 1 .49 2.77 1.978 1.978 0 0 1-2.754.494l-9.175-6.436a2.003 2.003 0 0 1-.49-2.77 1.976 1.976 0 0 1 2.754-.494z"/>
            <path fill="#565656" d="M115.628 70.757c-.536 0-1.06-.164-1.506-.478l-9.175-6.436a2.64 2.64 0 0 1-1.089-1.716c-.123-.701.03-1.409.434-1.99a2.623 2.623 0 0 1 1.707-1.095 2.63 2.63 0 0 1 1.978.436l9.174 6.436a2.642 2.642 0 0 1 1.089 1.716 2.66 2.66 0 0 1-.432 1.99 2.62 2.62 0 0 1-1.707 1.095c-.16.027-.316.042-.473.042zm-9.161-10.413c-.079 0-.157.007-.236.022a1.304 1.304 0 0 0-1.057 1.523c.062.348.252.648.537.849l9.175 6.435c.592.42 1.41.27 1.822-.325.198-.287.274-.637.213-.984a1.312 1.312 0 0 0-.538-.849l-9.174-6.435a1.285 1.285 0 0 0-.742-.236z"/>
            <path fill="#B1B1B1" d="M99.72 72.765l3.575 11.353a2.201 2.201 0 0 1-1.42 2.752 2.184 2.184 0 0 1-2.738-1.428l-3.575-11.353a2.201 2.201 0 0 1 1.421-2.753 2.185 2.185 0 0 1 2.737 1.43z"/>
            <path fill="#565656" d="M101.217 87.644a2.855 2.855 0 0 1-2.717-2l-3.576-11.35a2.862 2.862 0 0 1 .19-2.185 2.836 2.836 0 0 1 1.669-1.413 2.854 2.854 0 0 1 3.576 1.866l3.574 11.351a2.862 2.862 0 0 1-.19 2.185 2.834 2.834 0 0 1-2.526 1.546zm-3.58-15.737a1.506 1.506 0 0 0-1.336.822 1.51 1.51 0 0 0-.102 1.157l3.576 11.351c.122.385.387.701.747.888.36.187.769.225 1.15.102a1.523 1.523 0 0 0 .985-1.907l-3.575-11.352a1.507 1.507 0 0 0-.746-.888 1.508 1.508 0 0 0-.699-.173z"/>
            <path fill="#ECECEC" d="M80.08 124.11l-.942-.964a1.785 1.785 0 0 0-2.527-.023 1.779 1.779 0 0 0-.443.745 5.468 5.468 0 0 0-4.975 1.453c-2.153 2.125-2.185 5.637-.07 7.801l2.891 2.96a5.48 5.48 0 0 0 7.758.07c2.153-2.127 2.184-5.637.07-7.802l-1.729-1.769a1.803 1.803 0 0 0-.033-2.47z"/>
            <path fill="#565656" d="M77.93 138.405a6.124 6.124 0 0 1-4.392-1.85l-2.89-2.96a6.163 6.163 0 0 1-1.757-4.393 6.168 6.168 0 0 1 1.835-4.359 6.114 6.114 0 0 1 5.046-1.72c.103-.175.226-.335.37-.476a2.451 2.451 0 0 1 3.474.03l.942.964c.76.779.904 1.94.421 2.87l1.34 1.371c2.378 2.435 2.343 6.362-.077 8.754a6.127 6.127 0 0 1-4.312 1.769zm-2.9-13.983a4.78 4.78 0 0 0-3.368 1.38 4.818 4.818 0 0 0-1.435 3.412 4.823 4.823 0 0 0 1.373 3.437l2.89 2.96a4.807 4.807 0 0 0 6.814.063 4.871 4.871 0 0 0 .062-6.851l-2.176-2.224.431-.472a1.122 1.122 0 0 0-.019-1.545l-.941-.964a1.115 1.115 0 0 0-1.582-.016c-.123.122-.215.28-.274.466l-.18.583-.593-.125a4.97 4.97 0 0 0-1.002-.104z"/>
            <path fill="#FFF" d="M77.934 136.384a4.13 4.13 0 0 1-2.964-1.241l-2.891-2.961a4.142 4.142 0 0 1-1.182-2.962 4.148 4.148 0 0 1 1.67-3.313.666.666 0 0 1 .935.14c.22.299.158.72-.14.94a2.809 2.809 0 0 0-1.13 2.245 2.802 2.802 0 0 0 .8 2.007l2.89 2.96a2.811 2.811 0 0 0 3.973.037.667.667 0 0 1 .946.005c.26.264.257.69-.005.952a4.115 4.115 0 0 1-2.902 1.192z"/>
            <path fill="#ECECEC" d="M91.632 77.537c-3.159-4.292-9.18-5.196-13.448-2.018L59.05 89.76l19.073 25.91 26.862-19.995-13.353-18.14z"/>
            <path fill="#565656" d="M77.982 116.612L58.114 89.62l19.672-14.643c4.56-3.39 11.01-2.423 14.384 2.158l13.75 18.681-27.938 20.796zm-17.996-26.71l18.276 24.829 25.788-19.196-12.957-17.599h.001c-2.935-3.988-8.551-4.828-12.512-1.878L59.986 89.901z"/>
            <path fill="#F2CC38" d="M78.122 115.616l26.864-19.886 3.1 4.19-26.863 19.885z"/>
            <path fill="#565656" d="M81.067 120.8l-3.88-5.269 27.94-20.795 3.878 5.27L81.067 120.8zm-2.01-4.987l2.29 3.107 25.786-19.196-2.287-3.107-25.788 19.196z"/>
            <path fill="#FFF" d="M81.627 117.71a.669.669 0 0 1-.538-.271l-.697-.946a.677.677 0 0 1 .14-.942l23.635-17.593a.674.674 0 0 1 .937.14c.22.3.156.72-.14.942l-23.1 17.192.3.405a.671.671 0 1 1-.538 1.074zM78.443 113.384a.669.669 0 0 1-.538-.271l-16.586-22.53a.677.677 0 0 1 .14-.942L78.979 76.6a.672.672 0 0 1 .937.14c.22.3.156.72-.14.942L62.792 90.322l16.19 21.989a.671.671 0 1 1-.538 1.074z"/>
            <g>
                <path fill="#ECECEC" d="M66.322 69.437a6.764 6.764 0 0 1-2.147-2.917 16.494 16.494 0 0 1 1.59-14.827c-3.222-.106-6.5.827-9.292 2.906-6.58 4.896-7.964 14.229-3.094 20.845l8.817 11.978 11.912-8.867a14.797 14.797 0 0 0 4.684-5.845 16.28 16.28 0 0 1-12.47-3.273z"/>
                <path fill="#565656" d="M62.056 88.36L52.84 75.842c-5.08-6.904-3.63-16.676 3.234-21.787 2.826-2.101 6.19-3.129 9.713-3.038l1.19.04-.652 1a15.824 15.824 0 0 0-1.525 14.22 6.092 6.092 0 0 0 1.934 2.627 15.667 15.667 0 0 0 11.957 3.137l1.215-.185-.504 1.126a15.571 15.571 0 0 1-4.895 6.11L62.056 88.36zm2.517-35.988a13.934 13.934 0 0 0-7.703 2.767c-6.271 4.668-7.597 13.597-2.955 19.904l8.419 11.437 11.374-8.467a14.195 14.195 0 0 0 3.93-4.496c-4.184.31-8.404-.944-11.728-3.549a7.436 7.436 0 0 1-2.361-3.208 17.185 17.185 0 0 1 1.024-14.388z"/>
                <path fill="#FFF" d="M62.615 85.27a.669.669 0 0 1-.538-.27l-7.623-10.357c-4.421-6.01-3.158-14.515 2.815-18.963a13.289 13.289 0 0 1 4.906-2.293c.364-.093.72.14.804.5a.673.673 0 0 1-.498.808 12.005 12.005 0 0 0-4.416 2.067c-5.38 4.006-6.516 11.669-2.534 17.08l7.623 10.355c.22.3.157.72-.14.942a.688.688 0 0 1-.4.132z"/>
                <path fill="#90C3DD" d="M77.201 57.709c-2.803-3.809-7.068-5.874-11.438-6.018a16.494 16.494 0 0 0-1.59 14.828 6.785 6.785 0 0 0 2.148 2.917 16.267 16.267 0 0 0 12.47 3.27c2.133-4.758 1.718-10.503-1.59-14.997z"/>
                <path fill="#565656" d="M76.365 73.563a16.99 16.99 0 0 1-10.454-3.596 7.436 7.436 0 0 1-2.361-3.208 17.182 17.182 0 0 1 1.655-15.437l.205-.317.375.012a15.39 15.39 0 0 1 11.954 6.291c3.328 4.524 3.966 10.53 1.661 15.675l-.15.335-.36.054c-.838.129-1.684.19-2.525.19zM66.12 52.38a15.827 15.827 0 0 0-1.32 13.898 6.092 6.092 0 0 0 1.934 2.628 15.653 15.653 0 0 0 11.593 3.187c1.93-4.626 1.306-9.95-1.664-13.985A14.054 14.054 0 0 0 66.12 52.38z"/>
                <path fill="#FFF" d="M76.342 71.546a14.89 14.89 0 0 1-9.199-3.17 5.387 5.387 0 0 1-1.717-2.336 15.099 15.099 0 0 1 .833-12.565.67.67 0 1 1 1.176.645 13.741 13.741 0 0 0-.76 11.441 4.039 4.039 0 0 0 1.292 1.754 13.544 13.544 0 0 0 9.362 2.852c.327-.033.688.253.715.625a.67.67 0 0 1-.62.718c-.362.024-.722.036-1.082.036z"/>
            </g>
            <g transform="translate(58.365 63.932)">
                <ellipse cx="5.444" cy="5.39" fill="#F2CC38" rx="4.344" ry="4.368"/>
                <path fill="#565656" d="M5.454 10.432A4.982 4.982 0 0 1 1.412 8.39C-.23 6.156.239 2.992 2.46 1.339A5.001 5.001 0 0 1 9.47 2.39a5.027 5.027 0 0 1 .93 3.744 5.02 5.02 0 0 1-1.976 3.307c-.87.65-1.905.991-2.97.991zm-.017-8.736a3.64 3.64 0 0 0-2.18.724 3.711 3.711 0 0 0-.769 5.169A3.648 3.648 0 0 0 4.9 9.045a3.635 3.635 0 0 0 2.73-.684 3.675 3.675 0 0 0 1.448-2.426 3.683 3.683 0 0 0-.68-2.743 3.671 3.671 0 0 0-2.961-1.496z"/>
            </g>
            <path fill="#FFF" d="M63.816 72.345a2.99 2.99 0 0 1-2.425-1.224 3.042 3.042 0 0 1 .627-4.23c.3-.219.717-.157.935.14.221.3.158.72-.139.941a1.687 1.687 0 0 0-.348 2.347c.264.361.653.595 1.095.661.435.067.88-.043 1.237-.308a.668.668 0 0 1 .935.14c.221.298.158.72-.139.94a2.951 2.951 0 0 1-1.778.593z"/>
            <g>
                <path fill="#ECECEC" d="M82.045 75.285L62.001 90.204a2.109 2.109 0 0 1-2.951-.443 2.136 2.136 0 0 1 .44-2.967l20.044-14.92a2.109 2.109 0 0 1 2.951.442c.69.939.493 2.275-.44 2.969z"/>
                <path fill="#565656" d="M60.755 91.29a2.754 2.754 0 0 1-2.242-1.13 2.781 2.781 0 0 1-.512-2.072c.11-.74.497-1.391 1.093-1.834l20.042-14.92a2.737 2.737 0 0 1 2.064-.515c.736.11 1.383.5 1.823 1.099a2.807 2.807 0 0 1-.58 3.906v.002l-20.045 14.92a2.739 2.739 0 0 1-1.643.545zm20.03-19.158a1.42 1.42 0 0 0-.852.282L59.89 87.336c-.308.229-.51.566-.566.95a1.442 1.442 0 0 0 2.278 1.38l20.045-14.922v.001c.639-.476.774-1.385.302-2.027a1.43 1.43 0 0 0-1.164-.586z"/>
            </g>
            <path fill="#FFF" d="M60.72 89.269a.662.662 0 0 1-.092-.007.88.88 0 0 1-.507-.31.908.908 0 0 1-.136-.567.879.879 0 0 1 .3-.51L80.33 72.953a.913.913 0 0 1 .575-.14.77.77 0 0 1 .51.309.675.675 0 0 1-.492 1.066L61.47 88.666a.67.67 0 0 1-.265.456.884.884 0 0 1-.485.147zM81.13 74.034l-.006.004.006-.004z"/>
            <g>
                <path fill="#ECECEC" d="M71.626 94.011c.659-3.276-1.469-6.496-4.726-7.158-3.258-.662-6.46 1.478-7.119 4.753l-3.736 18.608c-.839 2.051-.558 4.491.972 6.28l10.921 12.766 9.057-8.048-8.77-10.253 3.401-16.948z"/>
                <path fill="#565656" d="M67.872 130.216L56.51 116.934c-1.644-1.92-2.058-4.594-1.083-6.975l3.698-18.485c.733-3.646 4.278-6.016 7.906-5.28 3.627.736 5.983 4.302 5.25 7.95l-3.338 16.628 8.99 10.506-10.06 8.938zm-2.17-42.81a5.392 5.392 0 0 0-5.266 4.334L56.7 110.35c-.818 2.033-.49 4.174.823 5.707l10.48 12.25 8.053-7.156-8.554-10L70.97 93.88c.585-2.922-1.3-5.778-4.204-6.366a5.303 5.303 0 0 0-1.063-.107z"/>
                <path fill="#FFF" d="M68.068 127.35L58.033 115.62c-1.148-1.343-1.436-3.218-.75-4.893l.074-.179 3.735-18.675a4.717 4.717 0 0 1 1.812-2.856 4.684 4.684 0 0 1 3.73-.846l-.264 1.318a3.38 3.38 0 0 0-2.669.607 3.379 3.379 0 0 0-1.297 2.043l-3.884 19.1c-.492 1.205-.292 2.546.527 3.502l9.152 10.7 5.541-4.923.886 1.009-6.558 5.825z"/>
            </g>
            <g>
                <path fill="#F2CC38" d="M78.24 122.903l-8.521 7.29a1.976 1.976 0 0 1-2.788-.226 2.003 2.003 0 0 1 .224-2.803l8.52-7.29a1.976 1.976 0 0 1 2.789.226 2.003 2.003 0 0 1-.225 2.803z"/>
                <path fill="#565656" d="M68.444 131.337a2.625 2.625 0 0 1-2.023-.934 2.675 2.675 0 0 1 .301-3.752l8.52-7.29a2.645 2.645 0 0 1 3.732.303 2.679 2.679 0 0 1-.301 3.753l-8.52 7.289c-.481.41-1.08.631-1.71.631zm8.512-11.264c-.3 0-.602.102-.85.312l-8.517 7.29a1.322 1.322 0 0 0-.149 1.855 1.3 1.3 0 0 0 .893.458c.346.027.689-.08.952-.308l8.52-7.29c.55-.47.616-1.303.15-1.857a1.304 1.304 0 0 0-.999-.46z"/>
            </g>
            <path fill="#565656" d="M96.151 102.925a.669.669 0 0 1-.538-.272L83.455 86.136c-1.375-1.87-3.57-3.008-6.182-3.206-2.527-.196-5.093.535-7.053 1.994a.666.666 0 0 1-.935-.14.673.673 0 0 1 .14-.94c2.215-1.65 5.127-2.483 7.949-2.257 3.006.228 5.548 1.558 7.16 3.746l12.155 16.518c.22.3.156.72-.14.942a.678.678 0 0 1-.398.132z"/>
            <path fill="#565656" d="M87.243 90.823a.669.669 0 0 1-.538-.272.677.677 0 0 1 .139-.942l8.835-6.575a.674.674 0 0 1 .936.14c.22.3.157.72-.139.941l-8.835 6.576a.68.68 0 0 1-.398.132z"/>
            <g>
                <path fill="#B1B1B1" d="M67.986 112.012l-11.826.595a2.193 2.193 0 0 1-.218-4.379l11.826-.595a2.19 2.19 0 0 1 2.286 2.08 2.194 2.194 0 0 1-2.068 2.3z"/>
                <path fill="#565656" d="M56.05 113.283c-.706 0-1.38-.26-1.91-.744a2.836 2.836 0 0 1-.935-1.98 2.85 2.85 0 0 1 .736-2.063 2.808 2.808 0 0 1 1.967-.94l11.827-.594a2.852 2.852 0 0 1 2.987 2.717 2.86 2.86 0 0 1-2.702 3.006l-11.828.594a2.46 2.46 0 0 1-.142.004zm11.828-4.98c-.026 0-.051 0-.076.002l-11.828.594a1.49 1.49 0 0 0-1.042.5 1.512 1.512 0 0 0-.392 1.093c.041.837.787 1.5 1.587 1.443l11.826-.594a1.519 1.519 0 0 0 1.434-1.596 1.515 1.515 0 0 0-1.51-1.442z"/>
            </g>
            <g>
                <path fill="#ECECEC" d="M99.076 113.181l18.665 1.838-1.31 13.053-23.16-2.28"/>
                <path fill="#565656" d="M116.431 128.745c-.023 0-.044-.002-.067-.003l-23.16-2.279a.672.672 0 0 1-.6-.736c.035-.368.371-.615.731-.604l22.495 2.214 1.178-11.714-17.998-1.772a.672.672 0 0 1-.6-.736.685.685 0 0 1 .731-.604l18.667 1.838a.669.669 0 0 1 .599.737l-1.311 13.053a.671.671 0 0 1-.665.606z"/>
            </g>
            <g>
                <path fill="#ECECEC" d="M139.42 139.396l-14.388-23.734-7.56 10.727 12.478 19.854z"/>
                <path fill="#565656" d="M129.95 146.915a.667.667 0 0 1-.566-.313l-12.478-19.854a.676.676 0 0 1 .02-.75l7.56-10.728a.705.705 0 0 1 .57-.283c.225.008.43.129.547.322l14.388 23.736c.183.3.103.69-.18.896l-9.47 6.846a.659.659 0 0 1-.39.128zm-11.674-20.504l11.86 18.868 8.389-6.065-13.535-22.33-6.714 9.527z"/>
            </g>
            <path fill="#FFF" d="M130.509 144.026a.67.67 0 0 1-.566-.313l-10.622-16.899a.669.669 0 1 1 1.13-.72l10.622 16.9a.67.67 0 0 1-.565 1.032z"/>
            <g>
                <path fill="#B1B1B1" d="M121.186 115.159l-1.655 11.791a2.189 2.189 0 0 1-2.465 1.865 2.197 2.197 0 0 1-1.854-2.478l1.655-11.792c.167-1.194 1.074 2.19 2.262 2.36 1.188.168 2.224-2.94 2.057-1.746z"/>
                <path fill="#565656" d="M117.371 129.507a2.866 2.866 0 0 1-2.823-3.266l1.656-11.791c.082-.593.4-.774.652-.82.578-.103.873.4 1.26 1.106.197.362.8 1.457 1.103 1.5.082-.002.342-.058 1.089-1.294.253-.417.543-.89 1.096-.691.552.197.468.801.44.998v.001l-1.655 11.792a2.852 2.852 0 0 1-2.818 2.465zm-.04-13.442l-1.457 10.366a1.52 1.52 0 0 0 1.286 1.716c.808.125 1.59-.462 1.707-1.292l1.355-9.647c-.344.265-.74.422-1.188.361-.733-.103-1.27-.784-1.703-1.504z"/>
            </g>
            <g transform="translate(112.697 112.362)">
                <ellipse cx="7.275" cy="7.065" fill="#F2CC38" rx="6.294" ry="6.33"/>
                <path fill="#565656" d="M7.283 14.065c-2.134 0-4.24-.981-5.604-2.832a6.987 6.987 0 0 1-1.292-5.2 6.973 6.973 0 0 1 2.745-4.596A6.89 6.89 0 0 1 8.302.14a6.911 6.911 0 0 1 4.57 2.759c2.284 3.105 1.632 7.497-1.454 9.795a6.898 6.898 0 0 1-4.135 1.37zm-.02-12.658a5.561 5.561 0 0 0-3.334 1.11A5.628 5.628 0 0 0 1.711 6.23a5.642 5.642 0 0 0 1.042 4.201c1.846 2.508 5.38 3.036 7.87 1.181 2.493-1.856 3.02-5.406 1.174-7.913A5.574 5.574 0 0 0 8.106 1.47a5.568 5.568 0 0 0-.843-.063z"/>
            </g>
            <path fill="#FFF" d="M119.979 124.41c-1.52 0-3.02-.698-3.99-2.016-1.626-2.21-1.16-5.338 1.035-6.974a.674.674 0 0 1 .936.14c.22.3.157.72-.14.941a3.614 3.614 0 0 0-1.424 2.387 3.623 3.623 0 0 0 .67 2.702 3.608 3.608 0 0 0 5.06.76.674.674 0 0 1 .936.14c.22.3.157.719-.139.94a4.907 4.907 0 0 1-2.944.98z"/>
            <g>
                <path fill="#D8D8D8" d="M151.753 139.087c-3.058 2.031-9.054 2.185-12.733 1.246v.002l-2.024-3.08a3.632 3.632 0 0 0-1.092 4.897v.005l3.429-.03-.066 12.404 13.312-9.365a3.366 3.366 0 0 0 2.905-.396 3.416 3.416 0 0 0 .96-4.717 3.37 3.37 0 0 0-4.69-.966z"/>
                <path fill="#575756" d="M139.267 155.202a.672.672 0 0 1-.669-.677l.062-11.72-2.752.023h-.005a.67.67 0 0 1-.604-.382 4.291 4.291 0 0 1 1.326-5.754.664.664 0 0 1 .926.192l1.878 2.86c3.662.857 9.238.583 11.952-1.218A4.046 4.046 0 0 1 157 139.68c1.23 1.878.715 4.411-1.15 5.65-.936.62-2.06.82-3.147.568l-13.055 9.183a.642.642 0 0 1-.38.121zm.066-13.749a.671.671 0 0 1 .669.677l-.059 11.103 12.253-8.62a.662.662 0 0 1 .587-.087c.788.254 1.64.14 2.33-.317a2.747 2.747 0 0 0 .771-3.786 2.712 2.712 0 0 0-3.764-.774c-3.17 2.108-9.352 2.336-13.266 1.338a.659.659 0 0 1-.393-.282l-1.614-2.453a2.945 2.945 0 0 0-.54 3.228l3.02-.025c.002-.002.005-.002.006-.002z"/>
                <path fill="#BCB5B5" d="M131.924 146.27l-.015-.01-.012.001a1.235 1.235 0 0 0-1.028.155 1.259 1.259 0 0 0-.354 1.74l5.03 7.656a1.244 1.244 0 0 0 2.192-.206l1.53-1.078.066-12.403-3.429.03"/>
                <path fill="#575756" d="M136.59 157.046a1.913 1.913 0 0 1-1.602-.865l-5.03-7.655a1.925 1.925 0 0 1-.279-1.448c.103-.506.396-.939.823-1.223a1.903 1.903 0 0 1 1.53-.254c.1.02.198.06.28.121.321.186.405.577.222.9-.162.285-.516.394-.823.285a.585.585 0 0 0-.472.071.585.585 0 0 0-.166.807l5.03 7.657a.58.58 0 0 0 1.017-.096.696.696 0 0 1 .233-.29l1.248-.878.06-11.373-2.752.025h-.005a.672.672 0 1 1-.005-1.345l3.429-.029c.13.016.35.07.476.197a.67.67 0 0 1 .196.48l-.065 12.403a.676.676 0 0 1-.285.548l-1.391.98a1.9 1.9 0 0 1-1.668.983z"/>
                <path fill="#FFF" d="M134.92 153.172a.413.413 0 0 1-.347-.188l-3.44-5.239a.624.624 0 0 1-.076-.386.62.62 0 0 1 .222-.328.605.605 0 0 1 .33-.077.418.418 0 0 1 .35.537l3.306 5.033a.417.417 0 0 1-.346.648z"/>
                <path fill="#F2CC38" d="M143.215 149.791c-.817 1.282-1.727 1.792-2.352 2.23-1.086.764-1.79.58-1.79.58l-1.693.02s-1.073-.259-1.515.851a3.572 3.572 0 0 0 .589 4.196l.063-.042 5.735-3.81 6.678-4.435-.789-2.166c0-.001-2.902-.215-4.926 2.576z"/>
                <path fill="#565656" d="M136.425 158.491l-.449-.355a4.244 4.244 0 0 1-.7-4.987c.464-1.17 1.574-1.305 2.165-1.205l1.714-.02.086.024v-.001c.013-.003.479.053 1.238-.478l.261-.179c.566-.383 1.271-.862 1.91-1.863l.023-.034c2.215-3.054 5.38-2.858 5.515-2.85l.43.032 1.122 3.072-13.315 8.844zm.668-5.23c-.183 0-.452.074-.606.46-.539 1.012-.49 2.15.093 3.039.002.004.006.01.01.013l11.532-7.658-.444-1.218c-.793.064-2.556.42-3.91 2.276-.786 1.223-1.646 1.809-2.277 2.235l-.244.167c-1.097.768-1.922.748-2.23.7l-1.712.02-.08-.02a.57.57 0 0 0-.132-.014z"/>
                <path fill="#FFF" d="M136.763 156.49a.416.416 0 0 1-.385-.26 2.82 2.82 0 0 1 .137-2.405c.097-.235.176-.344.277-.408a.95.95 0 0 1 .265-.083c.048-.01.1-.005.15.006l.14.033 1.642-.031h.005a.417.417 0 0 1 .006.835l-1.74.022c-.3.578-.328 1.18-.11 1.716a.42.42 0 0 1-.23.545.437.437 0 0 1-.157.03zm7.403-5.625a.417.417 0 0 1-.334-.667 5.667 5.667 0 0 1 1.43-1.382 5.308 5.308 0 0 1 2.027-.8.414.414 0 0 1 .479.343.418.418 0 0 1-.341.481 4.454 4.454 0 0 0-1.707.673c-.458.305-.867.7-1.22 1.181a.416.416 0 0 1-.334.17z"/>
                <path fill="#F2CC38" d="M147.312 149.762c.175.268.532.34.798.164l10.52-6.986a.581.581 0 0 0 .163-.803l-1.072-1.632a.574.574 0 0 0-.799-.164l-9.241 6.137c-.266.176-.522.455-.48 1.013l.11 2.27z"/>
                <path fill="#565656" d="M147.795 150.694a1.24 1.24 0 0 1-1.04-.562l-.1-.154-.12-2.453c-.035-.464.07-1.137.778-1.607l9.242-6.137a1.241 1.241 0 0 1 1.724.355l1.072 1.632c.184.279.248.614.182.942-.067.327-.257.61-.536.794l-10.516 6.984c-.213.14-.451.206-.686.206zm9.367-9.818l-9.113 6.164c-.126.084-.2.152-.18.403l.085 1.78 10.305-6.844-1.097-1.503z"/>
                <path fill="#575756" d="M139.452 144.4a.673.673 0 1 1-.023-1.345l6.355-.208.66-2.1a.669.669 0 1 1 1.274.405l-.802 2.553a.67.67 0 0 1-.616.471l-6.828.224h-.02z"/>
                <path fill="#FFF" d="M140.374 151.49h-.018a.417.417 0 0 1-.398-.435l.242-6.074a.42.42 0 0 1 .392-.401l4.868-.277c.232.024.426.164.439.394a.418.418 0 0 1-.392.441l-4.491.254-.226 5.695a.419.419 0 0 1-.416.402zM136.538 141.533a.414.414 0 0 1-.382-.256c-.026-.059-.597-1.485.408-2.818a.416.416 0 0 1 .583-.082c.183.14.22.402.082.586-.712.943-.32 1.952-.304 1.994a.418.418 0 0 1-.387.576zM148.248 147.795a.417.417 0 0 1-.229-.767l8.816-5.856a.409.409 0 0 1 .576.119.417.417 0 0 1-.118.578l-8.816 5.856a.398.398 0 0 1-.229.07z"/>
            </g>
            <g>
                <path fill="#F2CC38" d="M139.978 140.719l-9.226 6.868a2.81 2.81 0 0 1-3.933-.591 2.846 2.846 0 0 1 .587-3.955l9.226-6.868a2.81 2.81 0 0 1 3.933.59 2.845 2.845 0 0 1-.587 3.956z"/>
                <path fill="#565656" d="M129.09 148.812a3.457 3.457 0 0 1-2.81-1.414 3.52 3.52 0 0 1 .728-4.897l9.225-6.867a3.474 3.474 0 0 1 4.87.73 3.522 3.522 0 0 1-.727 4.898l-9.225 6.867a3.451 3.451 0 0 1-2.06.683zm9.207-12.518c-.456 0-.896.144-1.265.42l-9.226 6.866a2.166 2.166 0 0 0-.448 3.015c.339.46.838.759 1.406.845a2.108 2.108 0 0 0 1.59-.396l9.226-6.867a2.166 2.166 0 0 0 .447-3.015 2.13 2.13 0 0 0-1.73-.868z"/>
            </g>
            <path fill="#FFF" d="M129.085 146.793c-.073 0-.147-.007-.223-.018a1.46 1.46 0 0 1-.97-.58 1.512 1.512 0 0 1 .309-2.074l9.226-6.866a.672.672 0 0 1 .936.14c.22.3.157.72-.14.941l-9.225 6.867c-.055.039-.07.138-.03.192.04.055.14.07.192.027a.674.674 0 0 1 .937.14c.22.3.156.72-.14.942-.255.19-.556.289-.872.289zM112.603 125.995l-.066-.003-18.787-1.836c-.753.133-4.858.613-10.303-3.56a.673.673 0 0 1-.127-.941.664.664 0 0 1 .937-.128c5.37 4.116 9.273 3.304 9.31 3.293a.707.707 0 0 1 .215-.015l18.884 1.846a.672.672 0 0 1 .601.736.668.668 0 0 1-.664.608zM111.791 112.61a.669.669 0 0 1-.537-.271.677.677 0 0 1 .139-.942l8.316-6.19a.674.674 0 0 1 .936.14c.22.3.157.72-.14.942l-8.315 6.19a.668.668 0 0 1-.399.132z"/>
            <path fill="#565656" d="M82.443 84.3a.669.669 0 0 1-.538-.272.677.677 0 0 1 .139-.942l4.795-3.568a.674.674 0 0 1 .936.14c.22.3.157.72-.14.942l-4.794 3.568a.671.671 0 0 1-.398.132z"/>
            <path fill="#FFF" d="M96.783 100.509a.669.669 0 0 1-.538-.272l-6.495-8.825a.677.677 0 0 1 .139-.942.674.674 0 0 1 .936.14l6.495 8.825a.671.671 0 1 1-.538 1.074zM87.86 88.386a.669.669 0 0 1-.537-.271l-2.028-2.755-1.145-1.056a.675.675 0 0 1-.034-.952.668.668 0 0 1 .946-.033l1.228 1.149 2.11 2.846c.22.3.156.72-.14.942a.686.686 0 0 1-.4.13zM82.303 82.684a.67.67 0 0 1-.414-.144c-1.271-1.008-3.477-1.19-4.366-1.22a.67.67 0 0 1-.644-.697c.013-.37.318-.612.693-.649 1.267.045 3.621.302 5.146 1.51a.67.67 0 1 1-.415 1.2z"/>
        </g>
        <g opacity=".26" transform="translate(92 87)">
            <circle cx="2.731" cy="2.563" r="1.561" fill="#DD6262"/>
            <path fill="#565656" d="M2.731 4.82A2.259 2.259 0 0 1 .475 2.562 2.26 2.26 0 0 1 2.731.306 2.26 2.26 0 0 1 4.99 2.563a2.26 2.26 0 0 1-2.258 2.256zm0-3.12a.864.864 0 1 0 .002 1.728.864.864 0 0 0-.002-1.729z"/>
        </g>
        <g fill="#C6C6C6" opacity=".6">
            <path d="M75.12 12.044L62.443 6.727a2.773 2.773 0 0 0-1.077-.217c-1.18 0-2.227.723-2.669 1.843l-5.26 13.296-1.327-2.625c1.472-1.154 2.45-2.867 2.7-4.823a.496.496 0 0 0-.006-.153l.007-.028c.203-1.744-.079-3.57-.814-5.283L51.54 3.033a10.856 10.856 0 0 0-.825-1.556.442.442 0 0 0-.565-.166c-.455.215-.89.464-1.309.741l-.23-.532a8.29 8.29 0 0 0-.618-1.169.444.444 0 0 0-.565-.167c-1.666.787-3.02 2.129-3.937 3.892a9.413 9.413 0 0 0-4.796.776.468.468 0 0 0-.262.526c.077.364.19.72.337 1.06l1.241 2.885c-.267.099-.533.203-.796.319a.47.47 0 0 0-.262.526c.101.48.25.95.446 1.402l1.99 4.63c1.13 2.622 3.659 4.316 6.444 4.316.61 0 1.211-.08 1.797-.241l.977 1.93a6.85 6.85 0 0 0-1.24-.355c-2.473-.466-5.026.473-6.662 2.449a.476.476 0 0 0-.082.459c.851 2.446 2.915 4.255 5.388 4.721a6.723 6.723 0 0 0 2.31.04l-2.163 5.47a3.019 3.019 0 0 0 .016 2.263c.299.73.853 1.296 1.561 1.593l12.679 5.317c.344.144.706.217 1.077.217 1.18 0 2.227-.723 2.669-1.843l10.535-26.634c.602-1.513-.106-3.243-1.574-3.858zM63.495 43.457c-.254 0-.503-.05-.74-.15l-12.679-5.316A1.99 1.99 0 0 1 49 36.892a2.083 2.083 0 0 1-.012-1.56l2.459-6.215a.486.486 0 0 0 .045-.115l2.383-6.023a.496.496 0 0 0 .044-.114l5.605-14.168a1.98 1.98 0 0 1 1.84-1.27c.255 0 .504.05.741.15l12.679 5.317c1.01.424 1.498 1.616 1.087 2.658L65.335 42.188a1.98 1.98 0 0 1-1.841 1.27zM50.168 2.331c.2.345.383.707.543 1.078l2.456 5.704c.533 1.239.8 2.54.797 3.815-2.301-2.599-5.55-4.187-8.978-4.363 1.011-2.814 2.828-5 5.182-6.234zm-2.722-1.123c.125.222.237.451.34.686l.3.697a11.51 11.51 0 0 0-2.052 2.111 9.727 9.727 0 0 0-1.59-.48c.745-1.315 1.77-2.344 3.002-3.014zm-7.854 4.85a4.631 4.631 0 0 1-.184-.504 8.506 8.506 0 0 1 6.082-.069 13.776 13.776 0 0 0-1.455 3.069c-1.073.025-2.13.187-3.16.484l-1.283-2.98zm8.242 13.528c-2.43 0-4.634-1.477-5.619-3.762l-1.994-4.635a6.585 6.585 0 0 1-.298-.847 11.702 11.702 0 0 1 4.422-.868c3.713 0 7.265 1.788 9.542 4.79-.332 2.128-1.655 3.903-3.568 4.777a5.94 5.94 0 0 1-2.485.545zm2.85.305c.231-.105.452-.224.667-.352l1.638 3.237-.471 1.19-2.022-3.995c.063-.026.126-.051.189-.08zm-2.509 8.673c-2.07-.39-3.812-1.86-4.606-3.865 1.432-1.585 3.566-2.325 5.637-1.935a6.03 6.03 0 0 1 2.104.826l.762 1.506-1.341 3.392c-.84.21-1.697.236-2.556.076z"/>
            <path d="M72.114 16.19l-10.336-4.333a2.026 2.026 0 0 0-.791-.16c-.858 0-1.622.529-1.945 1.346L52.176 30.4a.683.683 0 0 0-.048.216 2.169 2.169 0 0 0 .6 2.197c.142.13.338.294.6.403l10.337 4.334c.253.106.519.16.79.16.858 0 1.62-.529 1.945-1.346l6.867-17.36c.436-1.101-.08-2.365-1.153-2.814zm-7.659 20.593c-.155 0-.305-.031-.45-.092l-10.337-4.334a1.188 1.188 0 0 1-.337-.235 1.228 1.228 0 0 1-.336-1.244.921.921 0 0 0 .028-.154l6.855-17.33a1.193 1.193 0 0 1 1.108-.767c.154 0 .305.03.45.092l10.337 4.333c.611.257.905.976.657 1.605l-6.867 17.36a1.192 1.192 0 0 1-1.108.766z"/>
            <path d="M67.226 18.424l-9.38 4.831a.663.663 0 0 0-.353.617c.009.26.166.49.394.585l2.682 1.166L57.414 30a.67.67 0 0 0-.06.69.648.648 0 0 0 .574.367.627.627 0 0 0 .29-.071l9.379-4.832a.663.663 0 0 0 .354-.617.659.659 0 0 0-.395-.585l-2.681-1.166 3.155-4.377a.674.674 0 0 0 .059-.69.648.648 0 0 0-.863-.295zm-3.42 5.282a.476.476 0 0 0-.073.4.463.463 0 0 0 .26.306l2.691 1.17-7.895 4.068 2.846-3.947a.476.476 0 0 0 .073-.4.466.466 0 0 0-.26-.306l-2.691-1.17 7.894-4.068-2.845 3.947zM65.557 12.147l3.655 1.534c.17.072.364.076.544-.003a.739.739 0 0 0-.007-1.352l-3.657-1.534a.693.693 0 0 0-.545.003.74.74 0 0 0 .01 1.352zM58.226 36.068a2.015 2.015 0 0 0-.78-.157c-.844 0-1.596.52-1.915 1.325a2.175 2.175 0 0 0 .01 1.63c.213.524.613.93 1.124 1.145.25.103.512.157.779.157.844 0 1.596-.52 1.916-1.325.431-1.087-.078-2.332-1.134-2.775zm.298 2.424c-.18.453-.603.746-1.079.746-.15 0-.297-.03-.438-.089a1.172 1.172 0 0 1-.633-.645 1.218 1.218 0 0 1-.005-.917c.18-.453.603-.746 1.079-.746.15 0 .298.03.438.089.287.12.513.35.633.645.12.294.122.62.005.917z"/>
        </g>
        <g fill="#C6C6C6" opacity=".6">
            <path d="M23.756 95.282c1.826-2.89.945-6.716-1.963-8.53-2.656-1.657-6.097-1.064-8.064 1.253a1.867 1.867 0 0 0-1.081-2.36l-2.21-.942-.045-.018a1.894 1.894 0 0 0-2.258.754 1.869 1.869 0 0 0 .901 2.735l2.21.942.044.018a1.9 1.9 0 0 0 1.838-.29 6.168 6.168 0 0 0 2.043 8.39c2.909 1.813 6.76.938 8.585-1.952zm-9.624-6.004c1.506-2.384 4.683-3.106 7.082-1.61a5.091 5.091 0 0 1 1.62 7.038c-1.506 2.385-4.683 3.106-7.082 1.61a5.091 5.091 0 0 1-1.62-7.038zm-5.143-3.12a.795.795 0 0 1 1.021-.458l2.226.948a.786.786 0 0 1 .39 1.156.795.795 0 0 1-.95.317l-2.228-.948a.785.785 0 0 1-.46-1.015zM23.263 104.266c.44.244.946.305 1.431.169a1.864 1.864 0 0 0 1.31-2.278l-.548-2.327-.012-.046a1.886 1.886 0 0 0-3.406-.49 1.864 1.864 0 0 0-.225 1.473l.548 2.327.012.046c.135.481.452.88.89 1.126zm.153-4.734a.793.793 0 0 1 .978.545l.553 2.345a.791.791 0 0 1-.548.972.793.793 0 0 1-.978-.545l-.553-2.345a.791.791 0 0 1 .548-.972zM11.279 102.387l1.952-1.393a1.904 1.904 0 0 0 .47-.504 1.87 1.87 0 0 0-1.37-2.852 1.881 1.881 0 0 0-1.365.37l-1.954 1.394a1.904 1.904 0 0 0-.47.504 1.865 1.865 0 0 0 .116 2.15 1.893 1.893 0 0 0 2.62.33zm-1.632-2.106l1.969-1.404a.795.795 0 0 1 1.112.132.786.786 0 0 1-.133 1.106l-1.969 1.405a.795.795 0 0 1-1.112-.132.786.786 0 0 1 .133-1.107z"/>
            <path d="M40.943 69.323c-3.516-3.645-9.258-4.266-13.492-1.414a10.42 10.42 0 0 0-3.969 5.094c-8.352-2.23-17.555 1.069-22.388 8.719-.292.46-.574.956-.863 1.515a.54.54 0 0 0 .225.724l.045.023c.047.027.096.052.142.08a3.208 3.208 0 0 1 1.506 2.995.543.543 0 0 0 .498.584 3.21 3.21 0 0 1 1.453.48c.02.012.037.025.056.038l.054.038a3.214 3.214 0 0 1 1.15 3.904.54.54 0 0 0 .237.685l.062.034c.03.016.06.032.09.05a3.215 3.215 0 0 1 1.022 4.443 3.251 3.251 0 0 1-.371.477.54.54 0 0 0-.062.656c.575.913.66 2.04.224 3.017v.001a3.232 3.232 0 0 1-2.11 1.799.54.54 0 0 0-.4.517 3.203 3.203 0 0 1-.493 1.682c-.008.013-.017.025-.027.036l-.043.06a.537.537 0 0 0 .055.677 20.346 20.346 0 0 0 3.924 3.189c9.443 5.891 21.951 3.05 27.88-6.335a19.872 19.872 0 0 0 3.087-10.565l10.357-6.974c.246-.167.428-.359.56-.567.513-.813.251-1.854-.02-2.383a.41.41 0 0 0-.019-.033l-3.249-5.396c.049-.069.098-.138.142-.209a5.052 5.052 0 0 0-.09-5.521 5.102 5.102 0 0 0-5.173-2.12zm4.27 2.727a3.964 3.964 0 0 1-1.065 5.507 4.033 4.033 0 0 1-2.568.668.51.51 0 0 0-.163.013.539.539 0 0 0-.236.118l-.017.013a.563.563 0 0 0-.08.095c-.003.004-.008.008-.01.012-.004.005-.005.012-.009.016a.527.527 0 0 0-.049.107l-.002.007a3.918 3.918 0 0 1-1.576 2.124 3.965 3.965 0 0 1-2.57.667.547.547 0 0 0-.546.332c-.007.017-.015.032-.02.05a3.966 3.966 0 0 1-.4.89l-.016.031a3.994 3.994 0 0 1-.735.868 3.945 3.945 0 0 1-2.692 1.012c-.1-.001-.2-.004-.302-.013a.545.545 0 0 0-.567.381 3.952 3.952 0 0 1-2.6 2.616 4.026 4.026 0 0 1-4.518-1.551 4.023 4.023 0 0 1-.491-1.01 3.948 3.948 0 0 1 .445-3.354 3.84 3.84 0 0 1 .337-.453l.002-.004a.543.543 0 0 0 .078-.586 9.086 9.086 0 0 1-.76-2.331 9.37 9.37 0 0 1 .267-4.453 9.355 9.355 0 0 1 3.71-5.02c3.877-2.611 9.16-1.976 12.291 1.477.136.15.347.212.543.16a4.018 4.018 0 0 1 4.319 1.611zm.095 5.977l3.06 5.08c.059.123.49 1.092-.188 1.55l-9.782 6.588-.517.348-.54.364-1.8 1.212c-.448.301-.82.363-1.114.321a1.174 1.174 0 0 1-.511-.203 1.268 1.268 0 0 1-.26-.243l-.266-.345-3.364-4.38c.066-.032.13-.067.195-.103l.106-.056a5.008 5.008 0 0 0 .688-.477 5.14 5.14 0 0 0 .796-.834c.059-.077.12-.153.176-.234l.01-.017c.11-.164.209-.335.298-.51.027-.05.05-.103.073-.155.042-.088.087-.174.124-.265a5.168 5.168 0 0 0 1.455-.213c.34-.101.67-.24.984-.41.027-.016.058-.029.085-.044l.01-.006a4.764 4.764 0 0 0 1.047-.804 4.832 4.832 0 0 0 .595-.705 4.93 4.93 0 0 0 .533-.989 5.115 5.115 0 0 0 2.846-.868c.234-.158.453-.336.656-.53a5.055 5.055 0 0 0 .876-1.101c.007-.01.01-.021.017-.032.12-.205.226-.42.315-.641.063 0 .125-.004.189-.007a5.098 5.098 0 0 0 2.944-1.07l.053-.045c.074-.06.144-.116.21-.176zm-10.883 24.49c-5.61 8.878-17.443 11.567-26.379 5.992a19.21 19.21 0 0 1-3.42-2.718c.269-.496.435-1.04.493-1.604a4.3 4.3 0 0 0 2.104-1.673l.021.02c.312.333.538.847.776 1.389.35.793.745 1.693 1.54 2.19.796.498 1.784.46 2.654.427l.221-.008c.513-.017.991-.018 1.376.1.468.144.935.484 1.43.845.726.528 1.474 1.073 2.376 1.105.917.033 1.71-.46 2.476-.94.514-.32 1-.624 1.465-.73.464-.106 1.035-.042 1.638.025.899.1 1.829.203 2.64-.223.5-.262.857-.678 1.159-1.146.18-.28.341-.58.5-.876.288-.539.559-1.048.919-1.38.336-.31.852-.534 1.398-.77.798-.346 1.703-.74 2.204-1.531.5-.791.464-1.73.43-2.639-.023-.591-.044-1.15.092-1.585.145-.465.487-.93.851-1.422.208-.282.416-.567.598-.863.59.169 1.334.123 2.166-.437l1.174-.791a18.816 18.816 0 0 1-2.902 9.242zm-26.708-1.023a4.27 4.27 0 0 0-.256-3.272 4.294 4.294 0 0 0-.935-6.138A4.301 4.301 0 0 0 5.092 87.5v-.014c.01-.164.012-.33.011-.494l-.001-.131a26.676 26.676 0 0 0-.013-.462c-.03-.778-.057-1.512.264-2.022.322-.508 1-.802 1.717-1.114.075-.033.152-.065.228-.1.532-.234 1.063-.49 1.476-.87.493-.456.822-1.071 1.14-1.666.36-.673.7-1.308 1.202-1.57.516-.27 1.242-.19 2.011-.104.291.033.588.063.882.077l.813 2.97a1.887 1.887 0 0 0 3.41.505c.279-.441.36-.982.222-1.485l-.86-3.143a1.771 1.771 0 0 0-.052-.155c.431-.243.846-.42 1.244-.406.568.021 1.152.447 1.771.897.547.398 1.112.81 1.755 1.007.291.089.598.13.91.145.13.474.296.943.499 1.401a5.15 5.15 0 0 0-.267.393 1.874 1.874 0 0 0-.835.566l-1.6 1.784-.03.037a1.865 1.865 0 0 0 .27 2.63 1.883 1.883 0 0 0 2.136.165c.057.097.115.193.18.286 1.181 1.733 3.347 2.553 5.376 2.076l3.836 4.993c.066.087.151.18.25.272-.153.247-.337.5-.528.758-.4.543-.814 1.105-1.013 1.743-.19.612-.165 1.29-.14 1.947.03.777.058 1.512-.264 2.02-.321.508-.998.803-1.716 1.114-.607.263-1.232.534-1.704.97-.063.06-.124.12-.182.184l-.062.072c-.035.042-.072.082-.107.125l-.07.092a3.795 3.795 0 0 0-.085.116l-.07.103-.076.114c-.006.007-.01.014-.015.022-.008.012-.014.025-.022.036a9.444 9.444 0 0 0-.219.371l-.025.046c-.071.127-.14.256-.208.383-.36.673-.701 1.308-1.203 1.573-.515.27-1.241.19-2.01.103-.669-.074-1.358-.15-2.002-.004-.644.147-1.233.514-1.801.868-.655.409-1.274.797-1.857.774-.568-.02-1.151-.445-1.77-.897-.547-.398-1.113-.81-1.756-1.006-.616-.19-1.299-.164-1.959-.14-.782.03-1.522.058-2.033-.261-.511-.32-.808-.994-1.121-1.706-.265-.602-.538-1.224-.976-1.693-.094-.1-.2-.198-.317-.295-.004 0-.006-.004-.009-.006zm-6.28-18.206c.193-.355.385-.682.58-.991 4.566-7.226 13.254-10.352 21.146-8.26a10.446 10.446 0 0 0-.187 4.218 2.313 2.313 0 0 1-.346-.073c-.468-.144-.936-.485-1.433-.846-.724-.528-1.473-1.074-2.375-1.105-.71-.025-1.343.264-1.948.618a1.892 1.892 0 0 0-1.594-.29 1.872 1.872 0 0 0-1.337 1.384c-.224-.015-.459-.04-.699-.066-.786-.088-1.597-.178-2.33.086a2.39 2.39 0 0 0-.31.136c-.799.42-1.235 1.234-1.656 2.022-.289.54-.562 1.048-.92 1.38-.336.31-.852.534-1.398.77-.798.348-1.704.74-2.204 1.531-.5.793-.465 1.731-.431 2.639a18.447 18.447 0 0 1 .013.424 4.28 4.28 0 0 0-.761-.228 4.277 4.277 0 0 0-1.81-3.35zm21.507 2.049a.796.796 0 0 1-1-.001.784.784 0 0 1-.113-1.108l.904-1.01a5.034 5.034 0 0 0 .21 2.119zm-6.607-7.522a.793.793 0 0 1 .203.343l.04.144.82 3a.783.783 0 0 1-.556.966.793.793 0 0 1-.972-.554l-.754-2.757-.105-.386a.738.738 0 0 1-.023-.14.786.786 0 0 1 .116-.486.801.801 0 0 1 .142-.164.796.796 0 0 1 .322-.178c.024-.007.049-.008.072-.012a.793.793 0 0 1 .695.224z"/>
        </g>
        <g fill="#C6C6C6" opacity=".6">
            <path d="M37.244 141.768l-2.561 6.919c-1.07 2.891 2.37 6.885 7.83 9.092 5.46 2.209 10.577 1.674 11.648-1.217l.556-1.502c1.177.912 2.586 1.71 4.113 2.328 5.026 2.032 9.737 1.531 10.727-1.139l2.804-7.574-.01-.005c.035-.075.067-.15.096-.229.989-2.671-2.173-6.355-7.199-8.387-3.321-1.343-6.504-1.579-8.567-.814.412-.342.72-.758.902-1.248.988-2.671-2.174-6.356-7.2-8.388-5.025-2.033-9.737-1.532-10.727 1.138a2.94 2.94 0 0 0-.075.238l-.01-.004-2.805 7.574c-.356.954-.185 2.064.478 3.218zm5.602 15.112c-4.812-1.947-8.157-5.538-7.302-7.845l2.356-6.365c.853 2.398 3.765 4.974 7.766 6.592 4 1.617 7.814 1.762 9.989.587l-2.356 6.365c-.855 2.308-5.641 2.612-10.453.666zm4.006-17.75c.858.347 1.707.619 2.53.82 4.686 1.966 7.908 5.479 7.068 7.747-.854 2.307-5.64 2.612-10.452.665s-8.157-5.538-7.303-7.845c.703-1.896 4.063-2.438 7.912-1.489.083.034.162.07.245.102zm5.485 1.241c1.174.036 2.226-.108 3.083-.426-.412.342-.72.758-.902 1.25a2.86 2.86 0 0 0-.148.614 16.448 16.448 0 0 0-2.033-1.438zm16.356 15.531c-.775 2.094-5.14 2.363-9.531.587-1.542-.623-2.948-1.438-4.099-2.365l2.155-5.822-.012-.004a3.165 3.165 0 0 0 .291-1.129c1.198.947 2.639 1.774 4.22 2.415 3.621 1.464 7.08 1.613 9.099.584l-2.123 5.734zm-3.78-14.947c4.39 1.776 7.447 5.046 6.67 7.14-.775 2.093-5.14 2.362-9.531.586-1.783-.72-3.374-1.685-4.603-2.791l-.068.083c-.287-1.13-1.055-2.315-2.199-3.434l.1-.014a2.052 2.052 0 0 1 .098-.981c.775-2.096 5.14-2.364 9.532-.589zm-14.868-10.45c4.391 1.776 7.447 5.045 6.672 7.139-.63 1.7-3.626 2.196-7.082 1.373-.05-.02-.1-.044-.153-.064a20.222 20.222 0 0 0-2.635-.864c-4.209-1.803-7.089-4.958-6.334-6.997.776-2.094 5.141-2.363 9.532-.587zm-10.298 2.658c.582 1.531 2.063 3.13 4.146 4.455-3.03-.182-5.373.702-6.059 2.551a3.132 3.132 0 0 0-.082.26l-.012-.005-.048.131c-.19-.522-.273-1.105-.07-1.655l2.125-5.737z"/>
            <path d="M48.04 135.921c2.265.916 4.329.643 4.801-.635.473-1.277-.877-2.93-3.142-3.846-2.265-.916-4.328-.643-4.801.633-.473 1.28.878 2.932 3.142 3.848zm1.326-3.58c1.78.72 2.849 1.965 2.615 2.597-.234.632-1.826.803-3.606.082-1.78-.72-2.849-1.965-2.615-2.597.234-.632 1.826-.802 3.606-.082zM62.906 146.372c2.265.916 4.329.643 4.801-.635.473-1.278-.877-2.93-3.142-3.847-2.265-.915-4.328-.642-4.801.634-.473 1.279.879 2.932 3.142 3.848zm1.326-3.58c1.78.719 2.848 1.965 2.615 2.597-.234.632-1.826.803-3.606.082-1.78-.72-2.849-1.966-2.615-2.598.234-.632 1.826-.801 3.606-.082zM46.961 145.762c2.448.99 4.676.703 5.184-.666.507-1.371-.956-3.15-3.403-4.14-2.448-.989-4.676-.702-5.183.667-.508 1.369.955 3.149 3.402 4.139zm1.446-3.906c1.965.795 3.139 2.182 2.876 2.891-.262.71-2.024.91-3.989.115-1.964-.794-3.138-2.181-2.876-2.891.263-.71 2.025-.91 3.99-.115zM68.308 167.728c.045-.733-.367-1.406-1.024-1.673a1.542 1.542 0 0 0-.482-.11l-19.288-1.246 19.41-2.243c.426-.048.81-.268 1.079-.619.269-.35.391-.79.344-1.238a1.667 1.667 0 0 0-1.018-1.384 1.545 1.545 0 0 0-.758-.102l-38.865 4.49c-.426.049-.81.268-1.08.62-.268.35-.39.788-.343 1.234a1.667 1.667 0 0 0 1.02 1.386c.238.097.5.132.755.104l.749-.086 37.798 2.442c.427.028.841-.119 1.164-.417.321-.297.513-.71.54-1.158zm-40.502-3.165l38.866-4.49a.656.656 0 0 1 .322.045.708.708 0 0 1 .434.59c.042.394-.229.749-.606.79l-38.04 4.395-1.15-.074a.683.683 0 0 1-.206-.046c-.025-.011-.048-.026-.072-.04a.715.715 0 0 1-.155-.378c-.04-.394.23-.75.607-.792zm38.854 3.776l-32.486-2.1 7.972-.92 24.6 1.59c.073.004.142.02.206.046.272.11.456.393.437.711-.025.399-.35.699-.73.673z"/>
        </g>
        <g fill="#C6C6C6" opacity=".6">
            <path d="M205.833 135.018c.416-.48.613-1.117.54-1.747-.442-3.758-2.666-6.649-5.805-7.544l-3.863-1.103.764-2.614c.795-2.72.484-5.754.08-7.827-.08-.653-.234-2.45-.019-3.184l.591-2.02.123.035c.634.18 1.3-.183 1.484-.81l.3-1.029a1.184 1.184 0 0 0-.82-1.466l-8.328-2.376a1.203 1.203 0 0 0-1.484.81l-.3 1.028a1.183 1.183 0 0 0 .82 1.466l.121.035-.59 2.02c-.216.735-1.315 2.174-1.735 2.685-1.46 1.541-3.361 3.944-4.156 6.664l-.147.503a5.793 5.793 0 0 0-2.99-2.012 5.886 5.886 0 0 0-3.134-.026 11.446 11.446 0 0 0-3.72-8.81.495.495 0 0 0-.618-.04 11.575 11.575 0 0 0-4.654 7.101 11.627 11.627 0 0 0-2.074-1.223.494.494 0 0 0-.6.155 11.535 11.535 0 0 0-2.109 5.033l-1.058-.302a.476.476 0 0 0-.59.322 18.956 18.956 0 0 0 2.12 15.352c.062.1.159.172.273.206l14.933 4.26a.463.463 0 0 0 .127.016c.244.196.53.346.85.438l20.007 5.707c1.276.364 2.612-.365 2.982-1.626.166-.57.105-1.15-.128-1.65a1.478 1.478 0 0 0 1.225-1.044 1.464 1.464 0 0 0-1.013-1.814l-.106-.03c.082-.074.158-.154.227-.242.16.18.363.321.597.407.126.047.27.04.391-.021a.482.482 0 0 0 .25-.298l.479-1.636a1.829 1.829 0 0 0-.057-1.185c.302-.106.584-.3.814-.564zm-.408-1.638c.042.365-.076.749-.315 1.026-.18.206-.405.329-.621.337a.507.507 0 0 0-.113.018 1.872 1.872 0 0 0-.578-.28l-21.55-6.148c-.02-.006-.042-.01-.062-.015a.46.46 0 0 0-.046-.089c-.234-.343-.268-.972.129-1.458 2.155-2.646 5.212-3.8 7.975-3.013l10.061 2.871c2.76.79 4.723 3.377 5.12 6.75zm-20.797-11.548a10.786 10.786 0 0 1 4.488-2.208c.366.987.578 2.014.632 3.064-1.805-.314-3.671.06-5.356 1.03l.015-.045a5.677 5.677 0 0 0 .221-1.841zm5.382-16.4l.3-1.03a.248.248 0 0 1 .305-.166l8.329 2.377c.13.038.206.172.168.3l-.3 1.03a.246.246 0 0 1-.305.164l-8.328-2.376a.241.241 0 0 1-.169-.3zm-1.591 6.576c.008-.008.015-.016.021-.025.165-.198 1.612-1.972 1.922-3.03l.591-2.02 6.254 1.784-.592 2.02c-.31 1.059-.04 3.322-.009 3.576l.005.032c.385 1.973.688 4.857-.057 7.404l-.763 2.614-5.055-1.442a11.338 11.338 0 0 0-.859-4.038.49.49 0 0 0-.544-.291 11.798 11.798 0 0 0-4.861 2.127 5.703 5.703 0 0 0-.389-1.086l.389-1.331c.743-2.547 2.556-4.828 3.947-6.294zm-5.344 7.732c.323.58.517 1.206.583 1.845-.002.03.001.059.005.088a4.757 4.757 0 0 1-.54 2.644l-3.135-.894c-.18-2.182-1-4.289-2.344-6.04a4.923 4.923 0 0 1 2.509.053 4.841 4.841 0 0 1 2.922 2.304zm-16.898-5.152c.745.375 1.465.854 2.145 1.429a.492.492 0 0 0 .803-.306 10.598 10.598 0 0 1 4.065-7.03 10.486 10.486 0 0 1 3.103 8.162l-.008.064c-.006.04-.013.08-.015.12-.011.131.032.261.12.36a10.564 10.564 0 0 1 2.586 5.747l-14.517-4.14c.23-1.573.815-3.082 1.718-4.406zm-3.526 4.87l1.033.294a.445.445 0 0 0 .182.058h.02l15.413 4.396c.057.03.12.047.185.052l3.025.863c-.344.325-.674.678-.985 1.06-.507.623-.637 1.477-.377 2.175a1.913 1.913 0 0 0-1.238 1.28l-.465 1.592c-.07.24.058.495.295.585a1.487 1.487 0 0 0 1.195-.055c.003.166.03.329.073.487l-.074-.021a1.488 1.488 0 0 0-1.836 1.001c-.164.56.028 1.138.441 1.502-.477.3-.85.763-1.02 1.34-.13.45-.119.903.004 1.322l-13.825-3.943a18.023 18.023 0 0 1-2.046-13.988zm37.785 24.358l-20.008-5.707a1.436 1.436 0 0 1-.993-1.78c.205-.702.91-1.13 1.623-1.02l20.358 5.807a1.433 1.433 0 0 1 .822 1.717 1.462 1.462 0 0 1-1.802.983zm2.874-3.683a.505.505 0 0 1-.623.34l-22.305-6.363a.497.497 0 0 1-.344-.616.506.506 0 0 1 .624-.341l1.741.497 18.794 5.36 1.771.506c.265.076.42.353.342.617zm-20.636-7.412a1.04 1.04 0 0 1-.72-1.29l.165-.567a.554.554 0 0 1 .215.015.51.51 0 0 1 .361.374l.158.663c.127.528.517.933 1.044 1.084.527.15 1.076.013 1.468-.368l.49-.477a.516.516 0 0 1 .511-.127.509.509 0 0 1 .363.377l.158.662c.126.528.516.933 1.044 1.084.527.15 1.076.013 1.468-.368l.492-.478a.514.514 0 0 1 .51-.128c.088.026.3.112.362.376l.158.663c.126.528.516.933 1.044 1.084.527.15 1.076.013 1.467-.368l.491-.477a.516.516 0 0 1 .511-.127c.088.025.3.111.363.376l.158.663c.126.528.516.933 1.043 1.083.528.15 1.077.014 1.468-.366l.492-.478a.514.514 0 0 1 .51-.128c.088.026.3.112.363.378l.157.663c.127.528.517.933 1.044 1.083.528.15 1.077.014 1.468-.367l.49-.477a.518.518 0 0 1 .51-.128.522.522 0 0 1 .365.376l.006.029-.006.017-.093.317a1.056 1.056 0 0 1-1.304.711l-18.794-5.36zm21.25 4.508l-.107-.443a1.46 1.46 0 0 0-.343-.65 1.499 1.499 0 0 0-.702-.432 1.49 1.49 0 0 0-1.465.366l-.49.477a.514.514 0 0 1-.51.128.507.507 0 0 1-.363-.378l-.158-.663a1.474 1.474 0 0 0-1.044-1.083 1.496 1.496 0 0 0-1.467.366l-.492.478a.514.514 0 0 1-.51.128.507.507 0 0 1-.363-.378l-.158-.663a1.474 1.474 0 0 0-1.043-1.083 1.494 1.494 0 0 0-1.468.368l-.49.476a.514.514 0 0 1-.51.128.507.507 0 0 1-.363-.376l-.158-.663a1.474 1.474 0 0 0-1.044-1.084 1.494 1.494 0 0 0-1.468.368l-.49.477a.516.516 0 0 1-.511.127.507.507 0 0 1-.363-.377l-.158-.662a1.474 1.474 0 0 0-1.044-1.084 1.494 1.494 0 0 0-1.468.368l-.49.477a.516.516 0 0 1-.511.127.507.507 0 0 1-.363-.376l-.158-.663a1.47 1.47 0 0 0-1.042-1.082 1.555 1.555 0 0 0-.672-.039 1.588 1.588 0 0 0-.361.112c-.014.004-.026.01-.038.016l-.034.014-.059.035c-.11.063-.214.136-.307.226l-.49.477a.479.479 0 0 1-.072.059l.277-.948c.144-.492.648-.779 1.125-.643l21.55 6.148a.881.881 0 0 1 .61 1.091l-.216.733z"/>
            <path d="M189.244 124.964c-.249-.071-.506.058-.574.289-.068.23.08.475.329.545.249.071.506-.058.574-.289.068-.23-.08-.475-.33-.545zM190.557 128.5c.248.072.505-.057.573-.288.068-.23-.08-.475-.329-.545-.249-.071-.505.058-.573.289-.068.23.08.475.329.545zM194.695 128.326c.249.071.506-.058.574-.289.068-.23-.08-.475-.33-.545-.248-.07-.505.058-.573.289-.068.23.079.474.33.545zM197.049 131.195c-.068.231.08.476.329.545.249.072.506-.057.573-.288.068-.231-.08-.475-.328-.545-.25-.07-.506.059-.574.288z"/>
            <ellipse cx=".932" cy="1.051" rx="1" ry="1" transform="rotate(-73.894 186.846 -66.319)"/>
            <path d="M201.53 129.51c.249.072.506-.057.574-.288.068-.231-.08-.476-.33-.545-.248-.072-.505.057-.573.288-.068.23.079.474.329.545zM203.434 132.627c.249.07.506-.058.574-.289.068-.231-.08-.475-.33-.545-.248-.071-.505.058-.573.289-.068.23.08.473.33.545zM185.75 126.915c-.25-.071-.506.058-.574.289-.068.23.08.475.329.545.248.071.505-.058.573-.289.068-.23-.079-.474-.329-.545zM197.852 127.557c.249.071.506-.058.574-.289.068-.23-.08-.475-.33-.545-.248-.071-.505.058-.573.289-.068.23.08.474.33.545z"/>
        </g>
        <path fill="#C6C6C6" d="M142.097 47.864l-3.46-3.193v-.002l-2.102-1.94-.004-.003-2.54-2.345c-.002 0-.002 0-.002-.002l-2.101-1.94-.002-.002-2.542-2.347h-.002l-2.102-1.941v-.001l-1.408-1.3 5.603-1.663a1.633 1.633 0 0 0 1.16-1.297 1.613 1.613 0 0 0-.67-1.596l-5.89-4.158.15-7.12a1.619 1.619 0 0 0-.898-1.485 1.716 1.716 0 0 0-1.753.133l-5.847 4.215-6.85-2.339a1.686 1.686 0 0 0-1.716.38 1.604 1.604 0 0 0-.413 1.679l2.276 6.762-4.384 5.674a1.6 1.6 0 0 0-.163 1.72c.285.557.855.904 1.498.904l7.254-.036 4.142 5.847a1.677 1.677 0 0 0 1.615.683 1.653 1.653 0 0 0 1.339-1.12l1.305-4.014 3.648 3.857.27.284 2.457 2.597h.001l2.03 2.146 2.456 2.596v.002l2.03 2.147h.002l1.837 1.942c.156.155.406.296.794.296.258 0 .578-.063.972-.227.579-.24 1.108-.612 1.355-.854.251-.246.597-.736.807-1.28.353-.903.116-1.395-.152-1.659zm-5.476.652l-1.34-1.417 1.147-3.28 1.396 1.288-1.195 3.417-.008-.008zm-3.798-4.014l1.06-3.032 1.838 1.698-1.122 3.211-1.776-1.877zm-4.487-4.744l.9-2.577 1.84 1.697-.964 2.758-1.776-1.878zm.195-3.228l-.876 2.508-1.348-1.425.828-2.371 1.396 1.288zm2.262 5.827l.988-2.826 1.396 1.289-1.036 2.962-1.348-1.425zm-9.349-2.59a.783.783 0 0 1-.629.527.792.792 0 0 1-.759-.322l-4.274-6.034a.444.444 0 0 0-.362-.187h-.003l-7.49.037a.78.78 0 0 1-.7-.425.753.753 0 0 1 .076-.808l4.524-5.856a.422.422 0 0 0 .067-.398l-2.35-6.978a.755.755 0 0 1 .194-.789.797.797 0 0 1 .806-.178l7.071 2.415c.138.047.29.023.406-.06l6.034-4.35a.81.81 0 0 1 .825-.064.765.765 0 0 1 .422.698l-.154 7.35a.43.43 0 0 0 .183.36l6.078 4.291c.243.172.365.46.316.75a.768.768 0 0 1-.546.61l-7.165 2.127a.436.436 0 0 0-.293.283l-2.277 7.001zm2.455-4.697l.593-1.824.365-.109 1.572 1.451-.804 2.304-1.72-1.82c-.004 0-.005 0-.006-.002zm17.527 14.147c-.155.401-.422.793-.605.973-.19.186-.63.484-1.074.668-.473.197-.737.177-.787.128l-1.648-1.74 1.219-3.486 2.953 2.726c.098.098.076.384-.058.73z" opacity=".6"/>
        <g fill="#C6C6C6" opacity=".6">
            <path d="M173.457 62.626c-.268-1.336-1.54-2.199-2.836-1.923l-.526.112-.26-2.288a1.685 1.685 0 0 0-.61-1.127 1.587 1.587 0 0 0-1.206-.353l-.581.07 1.796-8.806c.462-2.267-.951-4.5-3.151-4.977a3.95 3.95 0 0 0-3.068.594 4.174 4.174 0 0 0-1.761 2.655l-1.56 7.651-.305 1.492-2.492.53-.99-4.939c-.259-1.295-1.492-2.132-2.75-1.865-1.257.268-2.07 1.54-1.81 2.836l1.644 8.21a4.874 4.874 0 0 0-.585-.488c.184-.323.19-.73-.002-1.072a1.014 1.014 0 0 0-1.092-.517l-.019.004-.025.007-1.047.271-.807-.738a1.016 1.016 0 0 0-1.223-.114c-.39.245-.578.716-.465 1.172l.122.5a4.816 4.816 0 0 0-2.441 2.373 4.61 4.61 0 0 0-2.882.076 1.034 1.034 0 0 0-1.211-.735 1.016 1.016 0 0 0-.762.689l-.343 1.055-1.04.302c-.44.128-.741.53-.752.999-.012.47.272.886.706 1.035l.333.114a5.074 5.074 0 0 0-.045 2.183v.001a2.514 2.514 0 0 0-.861 2.437c.229 1.142 1.192 1.936 2.275 1.97l2.468 8.636c.508 2.494 2.887 4.1 5.311 3.586l21.593-4.592c2.424-.516 3.99-2.962 3.5-5.46l-1.076-9.15a2.515 2.515 0 0 0 .836-2.416zm-5.34-4.71a.77.77 0 0 1 .582.17c.165.135.27.328.294.545l.268 2.364-2.734.582.726-3.556.864-.105zm-6.036-11.154a3.311 3.311 0 0 1 1.397-2.104 3.129 3.129 0 0 1 2.429-.47c1.743.379 2.863 2.147 2.497 3.943l-2.782 13.635-2.858.608c.21-.178.409-.372.593-.582a.447.447 0 0 0-.032-.617.416.416 0 0 0-.598.033 4.502 4.502 0 0 1-3.643 1.55 3.405 3.405 0 0 0-.193-.357l.651-3.194c.598.079 1.198.054 1.777-.068a5.381 5.381 0 0 0 2.933-1.733.447.447 0 0 0-.031-.617.416.416 0 0 0-.6.033 4.5 4.5 0 0 1-3.904 1.526l.72-3.527c.597.08 1.197.055 1.776-.068a5.381 5.381 0 0 0 2.933-1.732.447.447 0 0 0-.031-.617.416.416 0 0 0-.599.032 4.5 4.5 0 0 1-3.905 1.526l.72-3.527c.597.08 1.197.055 1.776-.068a5.381 5.381 0 0 0 2.934-1.732.447.447 0 0 0-.032-.617.416.416 0 0 0-.599.033 4.5 4.5 0 0 1-3.905 1.526l.576-2.815zm-6.46 14.997c1.325-.28 2.625.6 2.897 1.965.273 1.365-.581 2.704-1.906 2.985-1.324.281-2.624-.6-2.896-1.964-.273-1.365.581-2.703 1.906-2.986zm3.577-5.102l-.4 1.962-.607 2.973a3.81 3.81 0 0 0-.266-.201v-.006l-.857-4.276 2.13-.452zm-5.87-6.351c.8-.171 1.584.361 1.75 1.186l1.893 9.462a3.176 3.176 0 0 0-2.9.617l-1.894-9.462c-.165-.823.352-1.633 1.15-1.803zm-4.695 8.29a.18.18 0 0 1 .22.02l1.143 1.044 1.482-.385.007-.001c.155-.033.284.19.178.314l-1.014 1.178.374 1.527a.19.19 0 0 1-.143.235.18.18 0 0 1-.16-.044l-1.144-1.044-1.482.385-.008.001a.184.184 0 0 1-.196-.087.196.196 0 0 1 .02-.227l1.013-1.178-.373-1.526a.194.194 0 0 1 .083-.211zm-1.213 2.168l-.144.168c-.302.351-.347.857-.11 1.259.226.383.665.58 1.091.49l.019-.004.026-.007 1.047-.272.808.739a1.014 1.014 0 0 0 1.222.113c.39-.244.576-.714.465-1.17l-.265-1.08.276-.319a3.984 3.984 0 0 1 1.424 1.719c.009.02.023.035.034.053a3.46 3.46 0 0 0-.482 2.034l-4.133.879a4.88 4.88 0 0 0-2.497-3.152 3.993 3.993 0 0 1 1.22-1.45zm.448 4.778l-5.424 1.153.312-.962 1.04-.302c.439-.127.74-.528.752-.997a1.06 1.06 0 0 0-.704-1.037l-1.025-.353-.063-.228c.175-.064.354-.121.537-.16 2.036-.432 4.03.85 4.575 2.886zm-8.602-1.24a.192.192 0 0 1 .135-.181l1.47-.427.487-1.494a.167.167 0 0 1 .13-.11c.09-.02.197.022.225.12l.414 1.515 1.45.5a.194.194 0 0 1 .126.185.19.19 0 0 1-.135.18l-1.47.426-.486 1.494a.187.187 0 0 1-.18.13.184.184 0 0 1-.174-.138l-.414-1.516-.615-.213a.415.415 0 0 0-.102-.056.463.463 0 0 0-.127-.023l-.605-.209a.187.187 0 0 1-.129-.184zm.954 1.632l.221.806c.036.129.094.245.168.347l-.19.041a2.642 2.642 0 0 0-.216.057c-.06-.417-.052-.84.017-1.251zm32.64 8.38l.006.035c.407 2.033-.866 4.027-2.839 4.446l-21.592 4.592c-1.973.419-3.908-.893-4.314-2.925l-2.442-8.55 1.586-.338 2.399 8.283c.19.9 1.051 1.478 1.93 1.291.883-.188 1.454-1.082 1.271-1.993l-2.392-8.264 2.767-.588 1.938 8.36c.183.911 1.05 1.5 1.934 1.313.883-.187 1.454-1.083 1.269-2.007l-1.936-8.347 2.701-.575 1.686 8.418c.182.91 1.048 1.496 1.93 1.308.882-.187 1.452-1.08 1.27-1.989l-1.687-8.418 2.7-.575 1.433 8.47c.182.91 1.05 1.498 1.933 1.31.884-.189 1.455-1.083 1.275-1.98l-1.435-8.482 2.766-.588.972 8.527.005.037c.183.91 1.05 1.499 1.934 1.312.878-.187 1.446-1.07 1.277-1.973l-.979-8.586 1.362-.29c.08-.016.156-.037.23-.06l1.043 8.826zm-27.219-3.246l2.399 8.28a.814.814 0 0 1-.616.944.79.79 0 0 1-.932-.632l-2.393-8.264 1.542-.328zm5.977-1.271l1.937 8.36a.814.814 0 0 1-.613.961c-.426.09-.845-.192-.935-.645l-1.935-8.347 1.546-.33zm4.36-.927l1.54-.328 1.685 8.418a.811.811 0 0 1-.61.957.788.788 0 0 1-.929-.63l-1.686-8.417zm5.9-1.255l1.545-.329 1.432 8.469a.814.814 0 0 1-.613.961.788.788 0 0 1-.93-.618l-1.435-8.483zm5.976-1.27l1.543-.328.972 8.527.005.037a.814.814 0 0 1-.613.961.789.789 0 0 1-.928-.616l-.98-8.581zm3.566-1.65l-30.204 6.422c-.839.178-1.662-.38-1.835-1.244-.173-.864.369-1.713 1.207-1.89L153 65.343c.533 1.59 2.142 2.57 3.783 2.22 1.641-.349 2.743-1.905 2.62-3.583l11.389-2.421c.838-.179 1.662.38 1.834 1.243.174.866-.368 1.713-1.206 1.892z"/>
            <path d="M156.475 66.022c.956-.203 1.575-1.17 1.377-2.156-.197-.986-1.136-1.623-2.093-1.42-.956.203-1.574 1.171-1.377 2.157.197.985 1.136 1.623 2.093 1.42zm-.545-2.72c.5-.107.99.225 1.092.74.102.514-.22 1.02-.718 1.125a.924.924 0 0 1-1.092-.74c-.102-.515.219-1.02.718-1.125z"/>
        </g>
        <g fill="#C6C6C6" opacity=".6">
            <path d="M94.802 165.983l10.295-9.41a.487.487 0 0 0 .028-.692.497.497 0 0 0-.697-.028l-10.295 9.41a.487.487 0 0 0-.029.692.498.498 0 0 0 .698.028zM96.489 168.748a.498.498 0 0 0 .697.028l10.295-9.41a.487.487 0 0 0 .03-.692.497.497 0 0 0-.698-.029l-10.295 9.41a.488.488 0 0 0-.03.693zM105.013 164.895l-6.313 5.77a.487.487 0 0 0-.028.693.498.498 0 0 0 .697.028l6.313-5.77a.487.487 0 0 0 .029-.692.497.497 0 0 0-.698-.029zM121.163 156.351a4.567 4.567 0 0 0-2.214.07 4.516 4.516 0 0 0-3.185 3.376 4.447 4.447 0 0 0 .617 3.393 4.51 4.51 0 0 0 2.855 1.967 4.567 4.567 0 0 0 2.214-.07 4.516 4.516 0 0 0 3.184-3.376c.531-2.427-1.025-4.833-3.471-5.36zm2.506 5.151a3.535 3.535 0 0 1-2.492 2.641c-.56.16-1.16.179-1.733.056a3.534 3.534 0 0 1-2.233-1.538 3.483 3.483 0 0 1-.483-2.655 3.537 3.537 0 0 1 2.493-2.641 3.585 3.585 0 0 1 1.732-.056c1.914.412 3.131 2.295 2.716 4.193z"/>
            <path d="M122.162 151.785a9.326 9.326 0 0 0-4.511.143 9.243 9.243 0 0 0-5.089 3.655l-3.05-.38-4.343-4.681a.496.496 0 0 0-.697-.029l-3.932 3.595-1.812-.225a12.462 12.462 0 0 1-.694-.088c-.382-.057-.611-.092-.972.12-.428.256-.497.443-.782 1.231l-1.652 4.366-5.984 5.47a.487.487 0 0 0-.028.693l2.61 2.814-1.377 3.627a.487.487 0 0 0 .04.426l10.662 17.563a.496.496 0 0 0 .857-.021l10.194-6.067-.544 2.485c-.402 1.833.774 3.65 2.62 4.048.553.119 1.132.1 1.673-.053a3.408 3.408 0 0 0 2.393-2.499l1.717.371c.38.083.78.07 1.152-.036a2.352 2.352 0 0 0 1.657-1.755 2.343 2.343 0 0 0-1.806-2.789l-1.717-.371.422-1.929 1.717.37c.38.083.78.07 1.152-.036a2.349 2.349 0 0 0 1.656-1.755 2.343 2.343 0 0 0-1.17-2.552l4.94-2.939.012-.01c.006-.002.013-.003.018-.008a.49.49 0 0 0 .168-.673l-3.062-5.044a9.168 9.168 0 0 0 4.633-6.118c1.084-4.946-2.088-9.845-7.07-10.92zm-10.157 4.717c-.158.3-.297.612-.422.932l-1.032-1.113 1.454.18zm-14.892-.78l.095-.264c.235-.646.235-.646.36-.72.03-.02.046-.026.046-.026.037-.003.155.014.271.032.171.026.404.061.73.094l.973.12-3.346 3.059.87-2.295zm-1.734 4.417l.003-.003 9.397-8.59 6.459 6.965c-.025.098-.053.194-.075.293a9.14 9.14 0 0 0 1.58 7.366l-1.764 5.058-1.883-.28a12.462 12.462 0 0 1-.693-.089c-.382-.057-.613-.092-.972.12-.429.254-.497.442-.782 1.231l-.7 1.973-9.42-1.44-6.856-7.391 5.706-5.213zm18.915 11.557l-2.274-.454 1.46-4.187c.46.484.975.924 1.545 1.305l-.73 3.336zm-18.231 1.968a.5.5 0 0 0 .414.07l.01-.005 9.036 1.382-4.696 13.467-9.494-15.638 4.73.724zm-1.097-1.16l-3.985-.61.992-2.616 2.993 3.226zm6.917 16.134l5.6-15.83.095-.263c.235-.647.235-.647.36-.721.032-.02.047-.026.047-.026.037-.003.156.015.27.033.171.025.404.06.72.09l5.104.76-2.191 10.004-10.005 5.953zm19.564-11.643a.514.514 0 0 0-.149.137l-1.126-.243.702-3.205c.02.006.04.013.061.015l4.84.72-4.328 2.576zm2.255-7.753l2.516 4.146-5.108-.782.613-2.8a8.995 8.995 0 0 0 1.979-.564zm4.566-6.747a8.215 8.215 0 0 1-5.795 6.139c-.4.114-.812.2-1.224.25a.492.492 0 0 0-.427.429l-1.719 7.846a.489.489 0 0 0 .378.583l2.2.474c.74.16 1.21.887 1.05 1.622a1.37 1.37 0 0 1-1.633 1.043l-2.2-.474a.492.492 0 0 0-.587.375l-.632 2.887a.489.489 0 0 0 .379.582l2.199.475a1.366 1.366 0 0 1 1.05 1.622 1.371 1.371 0 0 1-1.633 1.043l-2.2-.474a.491.491 0 0 0-.586.375l-.094.43a2.429 2.429 0 0 1-1.712 1.814c-.385.11-.796.124-1.19.038a2.425 2.425 0 0 1-1.866-2.88l3.136-14.324.893-4.075.012-.042a.488.488 0 0 0-.22-.532 8.188 8.188 0 0 1-3.712-8.708c.038-.174.082-.343.13-.513.002-.006.005-.013.006-.02a8.227 8.227 0 0 1 5.66-5.609 8.337 8.337 0 0 1 4.028-.128c2.155.464 4 1.735 5.192 3.577a8.125 8.125 0 0 1 1.117 6.175z"/>
        </g>
    </g>
</svg>
