<?xml version="1.0" encoding="utf-8"?>
<!-- Generator: Adobe Illustrator 23.0.1, SVG Export Plug-In . SVG Version: 6.00 Build 0)  -->
<svg version="1.1" id="Livello_1" xmlns="http://www.w3.org/2000/svg" xmlns:xlink="http://www.w3.org/1999/xlink" x="0px" y="0px"
	 viewBox="0 0 1365 722.5" style="enable-background:new 0 0 1365 722.5;" xml:space="preserve">
<style type="text/css">
	.st0{opacity:7.000000e-02;enable-background:new    ;}
	.st1{fill:#BA181B;}
</style>
<title>homepage_hero2</title>
<path class="st0" d="M0,195.5h1365v527c-48.2-5-95.2-18.2-139-39c-71-33.8-81.7-63.4-135-71.7c-71.5-11.1-88.1,36.7-144,15.8
	c-39.8-14.9-45.8-44.5-108.6-67.3c-19.1-7-33.7-12.1-53.4-10.8c-41.7,2.8-54.2,30.9-83.9,32.8c-37,2.4-48.5-39.1-88-64.3
	c-88.8-56.7-180.5,57.5-275,8.4c-58.8-30.6-37-82-114-124.4c-51.2-28.2-112.2-33.6-145-36.9c-26.3-2.6-52.7-2.9-79-1V195.5z"/>
<path class="st1" d="M0,150h1365v537.5c-48-5.1-95-18.5-139-39.8c-71-34.5-81.7-64.7-135-73.1c-71.5-11.3-88.1,37.4-144,16.1
	c-39.8-15.2-45.8-45.4-108.6-68.7c-19.1-7.1-33.7-12.3-53.4-11c-41.7,2.9-54.2,31.5-83.9,33.4c-37,2.4-48.5-39.9-88-65.6
	c-88.8-57.8-180.5,58.7-275,8.6c-58.8-31.2-37-83.6-114-126.8c-51.2-28.8-112.2-34.3-145-37.6c-26.3-2.6-52.7-3-79-1.1V150z"/>
<path class="st1" d="M915,528"/>
<path class="st1" d="M212,400"/>
<path class="st1" d="M0,0"/>
<line class="st1" x1="0" y1="0" x2="1365" y2="0"/>
<rect class="st1" width="1365" height="187.5"/>
</svg>
