<svg id="Livello_1" data-name="Livello 1" xmlns="http://www.w3.org/2000/svg" viewBox="0 0 1365 527"><title>homepage_hero2</title><path d="M0,0H1365V527a428.14,428.14,0,0,1-139-39c-71-33.83-81.73-63.43-135-71.67-71.48-11.06-88.13,36.67-144,15.81-39.8-14.86-45.83-44.49-108.64-67.35-19.12-7-33.68-12.09-53.43-10.75-41.7,2.81-54.18,30.88-83.93,32.78-37,2.36-48.51-39.1-88-64.3-88.85-56.69-180.55,57.54-275,8.44C279.24,300.41,301,249,224,206.58c-51.17-28.22-112.18-33.64-145-36.89a466,466,0,0,0-79-1.05Z" style="opacity:0.07"/><path d="M0,0H1365V500a446.42,446.42,0,0,1-139-37c-71-32.1-81.73-60.18-135-68-71.48-10.49-88.13,34.79-144,15-39.8-14.1-45.83-42.21-108.64-63.9-19.12-6.61-33.68-11.47-53.43-10.2-41.7,2.67-54.18,29.3-83.93,31.1-37,2.24-48.51-37.1-88-61-88.85-53.79-180.55,54.59-275,8-58.76-29-37-77.73-114-118-51.17-26.77-112.18-31.92-145-35a490.6,490.6,0,0,0-79-1Z" style="fill:#ba181b
"/><path d="M834,472" style="fill:#ba181b
"/><path d="M131,344" style="fill:#ba181b
"/><path d="M-81-56" style="fill:#ba181b
"/></svg>

