<svg width="1365" height="389" xmlns="http://www.w3.org/2000/svg">
 <title>homepage_hero2</title>

 <g>
  <title>Layer 1</title>
  <path id="svg_1" opacity="0.07" d="m34,-69l1365,0l0,527a428.14,428.14 0 0 1 -139,-39c-71,-33.83 -81.73,-63.43 -135,-71.67c-71.48,-11.06 -88.13,36.67 -144,15.81c-39.8,-14.86 -45.83,-44.49 -108.64,-67.35c-19.12,-7 -33.68,-12.09 -53.43,-10.75c-41.7,2.81 -54.18,30.88 -83.93,32.78c-37,2.36 -48.51,-39.1 -88,-64.3c-88.85,-56.69 -180.55,57.54 -275,8.44c-58.76,-30.55 -37,-81.96 -114,-124.38c-51.17,-28.22 -112.18,-33.64 -145,-36.89a466,466 0 0 0 -79,-1.05l0,-168.64z"/>
  <path stroke="#af2b2b" id="svg_2" fill="#ba181b " d="m32,-65l1365,0l0,500a446.42,446.42 0 0 1 -139,-37c-71,-32.1 -81.73,-60.18 -135,-68c-71.48,-10.49 -88.13,34.79 -144,15c-39.8,-14.1 -45.83,-42.21 -108.64,-63.9c-19.12,-6.61 -33.68,-11.47 -53.43,-10.2c-41.7,2.67 -54.18,29.3 -83.93,31.1c-37,2.24 -48.51,-37.1 -88,-61c-88.85,-53.79 -180.55,54.59 -275,8c-58.76,-29 -37,-77.73 -114,-118c-51.17,-26.77 -112.18,-31.92 -145,-35a490.6,490.6 0 0 0 -79,-1l0,-160z"/>
  <path id="svg_3" fill="#ba181b " d="m834,472"/>
  <path id="svg_4" fill="#ba181b " d="m131,344"/>
  <path id="svg_5" fill="#ba181b " d="m-81,-56"/>
 </g>
</svg>