<svg width="28" height="28" viewBox="0 0 28 28" fill="none" xmlns="http://www.w3.org/2000/svg">
<path d="M10.4948 19.3008C10.1282 19.3008 9.82532 19.5732 9.77738 19.9265L9.77077 20.0248C9.77077 21.2065 8.66698 22.1808 7.29298 22.1808C5.97622 22.1808 4.90764 21.286 4.82088 20.1714L4.81519 20.0248C4.81519 19.6249 4.49104 19.3008 4.09119 19.3008C3.69133 19.3008 3.36719 19.6249 3.36719 20.0248C3.36719 22.0233 5.12996 23.6288 7.29298 23.6288C9.45599 23.6288 11.2188 22.0233 11.2188 20.0248C11.2188 19.6249 10.8946 19.3008 10.4948 19.3008Z" fill="black"/>
<path d="M18.954 4.93231L12.4156 4.90039L12.2551 4.91832L12.092 4.96632L12.0552 4.98283L11.917 5.0608C11.4446 5.40174 11.5125 6.11829 12.0624 6.34123L12.1638 6.37499L12.2337 6.38991C12.2802 6.39781 12.3282 6.40195 12.3884 6.40449L15.0483 6.40539L15.0493 12.8478L15.0437 13.0414C14.9951 13.8681 14.6232 14.4451 13.9208 14.8342L13.7478 14.9226L13.5609 15.0037C13.1779 15.1565 12.7498 15.251 12.4649 15.2528L11.0643 15.2514L11.0653 15.0415L11.0619 14.87C10.991 13.0964 9.96791 11.5132 8.62244 11.5132C8.22258 11.5132 7.89844 11.8374 7.89844 12.2372C7.89844 12.6371 8.22258 12.9612 8.62244 12.9612C9.0506 12.9612 9.61733 14.106 9.61733 15.0413V15.9768L9.62436 16.0764C9.67742 16.4365 9.98129 16.7008 10.3413 16.7008H12.4697L12.6463 16.6941C13.2657 16.6522 14.0163 16.4367 14.6226 16.1008L14.7999 15.9969L14.9889 15.8725C15.9687 15.1876 16.4973 14.1586 16.4973 12.8478L16.4963 6.36539L18.8745 6.37626L18.9371 6.39312C19.3362 6.53599 19.2579 7.49934 18.776 7.56765C18.3462 7.62858 18.0662 8.05143 18.178 8.4709C18.3444 9.0955 18.7853 10.2287 19.4665 11.806L19.8668 12.7217L20.2495 13.5772L20.2976 13.6667C20.4391 13.8872 20.6798 14.014 20.9356 14.0051L21.0684 13.9978L21.3394 14.0026C22.7564 14.0708 24.0727 14.749 24.8924 15.8355C24.9778 15.9487 24.9433 16.1914 24.8378 16.262C24.6279 16.4024 24.0428 16.4075 23.8672 16.2792C23.5443 16.0432 23.0914 16.1137 22.8554 16.4365C22.6195 16.7593 22.6899 17.2123 23.0128 17.4482C23.6826 17.9377 24.9296 17.9427 25.643 17.4655C26.4442 16.9292 26.632 15.7375 26.0485 14.9635L25.8966 14.7709L25.7184 14.5646C24.6826 13.4203 23.213 12.7039 21.6333 12.5712L21.3783 12.5544L21.19 12.1337L20.8067 11.2568L20.6646 10.926C20.3413 10.1693 20.0772 9.52115 19.885 9.01034L19.7713 8.69739L19.84 8.65154C21.2093 7.61387 20.7426 5.1221 18.954 4.93231Z" fill="black"/>
<path d="M3.25441 11.7165C2.58265 12.3641 2.08594 13.9004 2.08594 15.1958V18.5848L2.09297 18.6844C2.14603 19.0445 2.4499 19.3088 2.80994 19.3088H15.6171L15.7166 19.3018C16.0767 19.2487 16.3411 18.9449 16.3411 18.5848L16.3341 18.4853L16.3108 18.3803C16.2197 18.075 15.9411 17.8608 15.6171 17.8608L3.53295 17.8598L3.53394 15.1958L3.5387 15.0129C3.5792 14.2073 3.87597 13.2338 4.18739 12.8393L4.33217 12.6769C4.54837 12.3883 4.52531 11.9916 4.27813 11.7352C4.0006 11.4473 3.54227 11.4389 3.25441 11.7165Z" fill="black"/>
<path fill-rule="evenodd" clip-rule="evenodd" d="M25.3198 19.466C25.3198 17.1653 23.4217 15.3027 21.0832 15.3027C18.7447 15.3027 16.8467 17.1653 16.8467 19.466C16.8467 21.7667 18.7447 23.6292 21.0832 23.6292C23.4217 23.6292 25.3198 21.7667 25.3198 19.466ZM18.2947 19.466C18.2947 17.9679 19.5418 16.7507 21.0832 16.7507C22.6247 16.7507 23.8718 17.9679 23.8718 19.466C23.8718 20.9641 22.6247 22.1812 21.0832 22.1812C19.5418 22.1812 18.2947 20.9641 18.2947 19.466Z" fill="black"/>
<path fill-rule="evenodd" clip-rule="evenodd" d="M11.0264 9.17969C10.9636 8.55829 10.4413 8.07422 9.8045 8.07422H3.12858L3.00253 8.08056C2.38115 8.1435 1.90039 8.66694 1.90039 9.30569V11.73L1.90672 11.856C1.96951 12.4774 2.49176 12.9615 3.12858 12.9615H9.8045L9.93055 12.9551C10.5519 12.8922 11.0327 12.3688 11.0327 11.73V9.30569L11.0264 9.17969ZM3.34839 9.52064H9.58339V11.5126H3.34839V9.52064Z" fill="black"/>
</svg>
