<?xml version="1.0" standalone="no"?><svg xmlns="http://www.w3.org/2000/svg" viewBox="0 0 1440 320"><path fill="#FFC244" fill-opacity="1" d="M0,32L24,69.3C48,107,96,181,144,197.3C192,213,240,171,288,149.3C336,128,384,128,432,160C480,192,528,256,576,266.7C624,277,672,235,720,186.7C768,139,816,85,864,58.7C912,32,960,32,1008,64C1056,96,1104,160,1152,160C1200,160,1248,96,1296,58.7C1344,21,1392,11,1416,5.3L1440,0L1440,320L1416,320C1392,320,1344,320,1296,320C1248,320,1200,320,1152,320C1104,320,1056,320,1008,320C960,320,912,320,864,320C816,320,768,320,720,320C672,320,624,320,576,320C528,320,480,320,432,320C384,320,336,320,288,320C240,320,192,320,144,320C96,320,48,320,24,320L0,320Z"></path></svg>